<mxfile host="app.diagrams.net" modified="2022-06-02T15:21:28.339Z" agent="5.0 (Macintosh; Intel Mac OS X 10_15_7) AppleWebKit/537.36 (KHTML, like Gecko) Chrome/101.0.4951.64 Safari/537.36" etag="yQrcBTgQkE2FaSkNTALV" version="18.2.0" type="github">
  <diagram id="3228e29e-7158-1315-38df-8450db1d8a1d" name="Page-1">
    <mxGraphModel dx="837" dy="154" grid="0" gridSize="10" guides="1" tooltips="1" connect="1" arrows="1" fold="1" page="1" pageScale="1" pageWidth="600" pageHeight="300" background="#EFF1F3" math="0" shadow="0">
      <root>
        <mxCell id="0" />
        <mxCell id="1" parent="0" />
        <mxCell id="Jgx5MPd64Z9ybUuF26Cs-2" value="" style="rounded=1;whiteSpace=wrap;html=1;fontColor=#FFFFFF;fillColor=none;strokeColor=#4A919B;dashed=1;strokeWidth=3;" parent="1" vertex="1">
          <mxGeometry x="165" y="328" width="148" height="243" as="geometry" />
        </mxCell>
        <mxCell id="Jgx5MPd64Z9ybUuF26Cs-4" value="" style="points=[[0.145,0.145,0],[0.5,0,0],[0.855,0.145,0],[1,0.5,0],[0.855,0.855,0],[0.5,1,0],[0.145,0.855,0],[0,0.5,0]];shape=mxgraph.bpmn.event;html=1;verticalLabelPosition=bottom;labelBackgroundColor=#ffffff;verticalAlign=top;align=center;perimeter=ellipsePerimeter;outlineConnect=0;aspect=fixed;outline=standard;symbol=timer;fontColor=#FFFFFF;strokeColor=#EFF1F3;strokeWidth=1;fillColor=#4A919B;" parent="1" vertex="1">
          <mxGeometry x="223.5" y="364" width="30" height="30" as="geometry" />
        </mxCell>
        <mxCell id="Jgx5MPd64Z9ybUuF26Cs-6" value="" style="rounded=1;whiteSpace=wrap;html=1;fontColor=#FFFFFF;strokeColor=#EFF1F3;strokeWidth=1;fillColor=#E6D7C2;" parent="1" vertex="1">
          <mxGeometry x="178.5" y="404" width="120" height="60" as="geometry" />
        </mxCell>
        <mxCell id="Jgx5MPd64Z9ybUuF26Cs-7" value="" style="shape=image;verticalLabelPosition=bottom;verticalAlign=top;imageAspect=0;aspect=fixed;image=data:image/svg+xml,PHN2ZyB4bWxuczp4bGluaz0iaHR0cDovL3d3dy53My5vcmcvMTk5OS94bGluayIgeG1sbnM9Imh0dHA6Ly93d3cudzMub3JnLzIwMDAvc3ZnIiBoZWlnaHQ9IjIwMCIgd2lkdGg9IjIwMCIgdmVyc2lvbj0iMS4xIiB2aWV3Qm94PSIwIDAgMTAyNCAxMDI0IiBjbGFzcz0iaWNvbiI+PGRlZnM+PHN0eWxlIHR5cGU9InRleHQvY3NzIj5AZm9udC1mYWNlIHsgZm9udC1mYW1pbHk6IGZlZWRiYWNrLWljb25mb250OyBzcmM6IHVybCgiLy9hdC5hbGljZG4uY29tL3QvZm9udF8xMDMxMTU4X3U2OXc4eWh4ZHUud29mZjI/dD0xNjMwMDMzNzU5OTQ0IikgZm9ybWF0KCJ3b2ZmMiIpLCB1cmwoIi8vYXQuYWxpY2RuLmNvbS90L2ZvbnRfMTAzMTE1OF91Njl3OHloeGR1LndvZmY/dD0xNjMwMDMzNzU5OTQ0IikgZm9ybWF0KCJ3b2ZmIiksIHVybCgiLy9hdC5hbGljZG4uY29tL3QvZm9udF8xMDMxMTU4X3U2OXc4eWh4ZHUudHRmP3Q9MTYzMDAzMzc1OTk0NCIpIGZvcm1hdCgidHJ1ZXR5cGUiKTsgfSYjeGE7PC9zdHlsZT48L2RlZnM+PHBhdGggZmlsbD0iIzRBOTE5QiIgZD0iTTI3Ny4zMzMzMzMgODUzLjMzMzMzM2E5NC4wMzczMzMgOTQuMDM3MzMzIDAgMCAxLTkzLjg2NjY2Ni05My44NjY2NjZWMjY0LjUzMzMzM0E5NC4wMzczMzMgOTQuMDM3MzMzIDAgMCAxIDI3Ny4zMzMzMzMgMTcwLjY2NjY2N2gzODYuOTAxMzM0YzE1Ljc4NjY2Ny0wLjEyOCAzMC45MzMzMzMgNi4wMTYgNDIuMTU0NjY2IDE3LjA2NjY2NmwxMjYuNDY0IDEyNi40NjRhMjUuNiAyNS42IDAgMCAxIDcuNjggMTguNjAyNjY3djQyNi42NjY2NjdhOTQuMDM3MzMzIDk0LjAzNzMzMyAwIDAgMS05My44NjY2NjYgOTMuODY2NjY2aC00NjkuMzMzMzM0eiBtMC02MzEuNDY2NjY2YTQyLjY2NjY2NyA0Mi42NjY2NjcgMCAwIDAtNDIuNjY2NjY2IDQyLjY2NjY2NnY0OTQuOTMzMzM0YTQyLjY2NjY2NyA0Mi42NjY2NjcgMCAwIDAgNDIuNjY2NjY2IDQyLjY2NjY2Nmg0NjkuMzMzMzM0YTQyLjY2NjY2NyA0Mi42NjY2NjcgMCAwIDAgNDIuNjY2NjY2LTQyLjY2NjY2NlYzNDMuMzgxMzMzbC0xMTkuNDY2NjY2LTExOS40NjY2NjZhOC41MzMzMzMgOC41MzMzMzMgMCAwIDAtNS42MzItMi4wNDhIMjc3LjMzMzMzM3ogbTkyLjg0MjY2NyAxNzguNTZoLTM4LjkxMlYzNjQuMzczMzMzaDM4LjkxMnYzNi4wNTMzMzR6IG0tMzguOTEyIDE5Ljk2OGgzOC45MTJ2MTQyLjYzNDY2NmMwLjU5NzMzMyAxMy4zNTQ2NjctMC42NCAyNi43NTItMy42NjkzMzMgMzkuNzY1MzM0YTMyLjQyNjY2NyAzMi40MjY2NjcgMCAwIDEtMTQuMTIyNjY3IDE4LjA5MDY2NmMtOC4xMDY2NjcgNC42MDgtMTcuMzY1MzMzIDYuODI2NjY3LTI2LjcwOTMzMyA2LjQ4NTMzNC00LjE4MTMzMyAwLTguMzYyNjY3LTAuMzg0LTEyLjU0NC0xLjA2NjY2N0ExNjguMjc3MzMzIDE2OC4yNzczMzMgMCAwIDEgMjk4LjY2NjY2NyA2MjMuMjMybDYuODI2NjY2LTMzLjMyMjY2NyA1LjEyIDAuOTM4NjY3YzEuNTM2IDAuMjEzMzMzIDMuMDI5MzMzIDAuMzQxMzMzIDQuNTIyNjY3IDAuMzQxMzMzYTE2LjY0IDE2LjY0IDAgMCAwIDkuODEzMzMzLTIuNjAyNjY2IDEyLjIwMjY2NyAxMi4yMDI2NjcgMCAwIDAgNS4wMzQ2NjctNi4xNDRjMS4xOTQ2NjctNy4xNjggMS42MjEzMzMtMTQuNDIxMzMzIDEuMjgtMjEuNjMyVjQyMC4zOTQ2Njd6IG04NS42NzQ2NjcgMjAzLjIyMTMzM1Y0MjAuMzk0NjY3aDM2LjMwOTMzM3YyMS41ODkzMzNhNTQuNCA1NC40IDAgMCAxIDQ1Ljg2NjY2Ny0yNC45MTczMzNjMTYuODEwNjY3LTAuMTcwNjY3IDMyLjc2OCA3LjI1MzMzMyA0My41MiAyMC4wOTYgMTIuOCAxNS43ODY2NjcgMTkuMTU3MzMzIDM1Ljc1NDY2NyAxNy45MiA1Ni4wMjEzMzMgMS4yOCAyMC42NTA2NjctNS4xMiA0MS4wODgtMTguMDQ4IDU3LjMwMTMzM2E1Ni4yMzQ2NjcgNTYuMjM0NjY3IDAgMCAxLTQzLjY0OCAyMC40OCA1MC4xMzMzMzMgNTAuMTMzMzMzIDAgMCAxLTIyLjEwMTMzNC00Ljg2NGMtNy44OTMzMzMtNC4yNjY2NjctMTQuOTMzMzMzLTkuODk4NjY3LTIwLjkwNjY2Ni0xNi42NHY3NC4xNTQ2NjdoLTM4LjkxMnogbTQ3Ljk1NzMzMy0xNjQuNzM2YTQ5LjA2NjY2NyA0OS4wNjY2NjcgMCAwIDAtOS40NzIgMzIuNTk3MzMzYy0xLjAyNCAxMi45NzA2NjcgMi40MzIgMjUuOTQxMzMzIDkuODEzMzMzIDM2LjY5MzMzNGEzMC4wOCAzMC4wOCAwIDAgMCAyNC4wMjEzMzQgMTEuODE4NjY2IDI4LjAzMiAyOC4wMzIgMCAwIDAgMjIuNjEzMzMzLTEwLjgzNzMzM2M2LjkxMi0xMC41Mzg2NjcgMTAuMDY5MzMzLTIzLjEyNTMzMyA4Ljk2LTM1LjcxMmE1My4yNDggNTMuMjQ4IDAgMCAwLTkuMjU4NjY3LTM0LjM0NjY2NyAyOC43MTQ2NjcgMjguNzE0NjY3IDAgMCAwLTIzLjA0LTExLjI2NCAyOS44NjY2NjcgMjkuODY2NjY3IDAgMCAwLTIzLjYzNzMzMyAxMS4wNTA2Njd6IG0xMjkuOTIgMTIzLjIyMTMzM2gtMC4wNDI2NjdsMC4xMjgtNC43MzYgNDQuNTAxMzM0IDUuMjkwNjY3YTE1LjUzMDY2NyAxNS41MzA2NjcgMCAwIDAgNS4xMiAxMC43OTQ2NjcgMjkuNjUzMzMzIDI5LjY1MzMzMyAwIDAgMCAxNy40OTMzMzMgNC4xMzg2NjZjNy44OTMzMzMgMC40NjkzMzMgMTUuNzg2NjY3LTEuMTA5MzMzIDIyLjg2OTMzMy00LjYwOGExOC43NzMzMzMgMTguNzczMzMzIDAgMCAwIDcuNzIyNjY3LTkuODEzMzMzIDU4Ljg4IDU4Ljg4IDAgMCAwIDEuODM0NjY3LTE3Ljkydi0yMS41MDRhNTIuODY0IDUyLjg2NCAwIDAgMS00NC4wNzQ2NjcgMjMuODkzMzMzIDU0LjQgNTQuNCAwIDAgMS00Ny4wMTg2NjctMjUuMDQ1MzMzIDg1LjYzMiA4NS42MzIgMCAwIDEtMTMuNTY4LTQ5LjQwOCA4MS4xOTQ2NjcgODEuMTk0NjY3IDAgMCAxIDE3Ljc5Mi01Ni41NzYgNTcuNDcyIDU3LjQ3MiAwIDAgMSA0NC4yODgtMTkuNTQxMzMzYzE4LjA5MDY2Ny0wLjA4NTMzMyAzNC45ODY2NjcgOC45NiA0NS4wNTYgMjMuOTc4NjY2di0yMC42NTA2NjZoMzYuNTIyNjY3djEzMi4wOTZjMC41MTIgMTMuMTQxMzMzLTAuOTM4NjY3IDI2LjI0LTQuMjY2NjY3IDM4Ljk1NDY2Ni0yLjMwNCA3LjYzNzMzMy02LjQ0MjY2NyAxNC41OTItMTIuMDc0NjY2IDIwLjIyNC01Ljk3MzMzMyA1LjMzMzMzMy0xMy4wNTYgOS4zMDEzMzMtMjAuNzM2IDExLjU2MjY2N2ExMTAuOTMzMzMzIDExMC45MzMzMzMgMCAwIDEtMzIuODEwNjY3IDQuMTM4NjY3Yy0yNC45MTczMzMgMC00Mi42NjY2NjctNC4yNjY2NjctNTMuMDc3MzMzLTEyLjg4NTMzNGE0MC4xNDkzMzMgNDAuMTQ5MzMzIDAgMCAxLTE1LjY1ODY2Ny0zMi40MjY2NjZ6IG00My45ODkzMzMtMTI0LjMzMDY2NmE1MS4wMjkzMzMgNTEuMDI5MzMzIDAgMCAwLTkuMDAyNjY2IDMzLjE5NDY2NmMtMS4wMjQgMTIuMTE3MzMzIDIuMTc2IDI0LjIzNDY2NyA5LjA0NTMzMyAzNC4zMDRhMjguMTYgMjguMTYgMCAwIDAgMjIuNCAxMC45MjI2NjcgMzAuOTc2IDMwLjk3NiAwIDAgMCAyNC4xMDY2NjctMTEuMjIxMzMzIDQ4LjY0IDQ4LjY0IDAgMCAwIDkuODEzMzMzLTMzLjA2NjY2NyA1MS41NDEzMzMgNTEuNTQxMzMzIDAgMCAwLTkuMzg2NjY3LTMzLjk2MjY2NyAyOS45NTIgMjkuOTUyIDAgMCAwLTIzLjg5MzMzMy0xMS4wOTMzMzMgMjguNzU3MzMzIDI4Ljc1NzMzMyAwIDAgMC0yMy4wNCAxMC45MjI2Njd6Ii8+PC9zdmc+;fontColor=#FFFFFF;strokeColor=#EFF1F3;strokeWidth=1;fillColor=#E6D7C2;" parent="1" vertex="1">
          <mxGeometry x="185" y="406" width="32" height="32" as="geometry" />
        </mxCell>
        <mxCell id="Jgx5MPd64Z9ybUuF26Cs-8" value="" style="shape=flexArrow;endArrow=classic;html=1;rounded=0;fontColor=#FFFFFF;strokeColor=none;fillColor=#4A919B;" parent="1" edge="1">
          <mxGeometry width="50" height="50" relative="1" as="geometry">
            <mxPoint x="104" y="408.81" as="sourcePoint" />
            <mxPoint x="154" y="408.81" as="targetPoint" />
          </mxGeometry>
        </mxCell>
        <mxCell id="Jgx5MPd64Z9ybUuF26Cs-9" value="" style="shape=image;verticalLabelPosition=bottom;verticalAlign=top;imageAspect=0;aspect=fixed;image=data:image/svg+xml,PHN2ZyB4bWxuczp4bGluaz0iaHR0cDovL3d3dy53My5vcmcvMTk5OS94bGluayIgeG1sbnM9Imh0dHA6Ly93d3cudzMub3JnLzIwMDAvc3ZnIiBoZWlnaHQ9IjIwMCIgd2lkdGg9IjIwMCIgdmVyc2lvbj0iMS4xIiB2aWV3Qm94PSIwIDAgMTAyNCAxMDI0IiBjbGFzcz0iaWNvbiI+PGRlZnM+PHN0eWxlIHR5cGU9InRleHQvY3NzIj5AZm9udC1mYWNlIHsgZm9udC1mYW1pbHk6IGZlZWRiYWNrLWljb25mb250OyBzcmM6IHVybCgiLy9hdC5hbGljZG4uY29tL3QvZm9udF8xMDMxMTU4X3U2OXc4eWh4ZHUud29mZjI/dD0xNjMwMDMzNzU5OTQ0IikgZm9ybWF0KCJ3b2ZmMiIpLCB1cmwoIi8vYXQuYWxpY2RuLmNvbS90L2ZvbnRfMTAzMTE1OF91Njl3OHloeGR1LndvZmY/dD0xNjMwMDMzNzU5OTQ0IikgZm9ybWF0KCJ3b2ZmIiksIHVybCgiLy9hdC5hbGljZG4uY29tL3QvZm9udF8xMDMxMTU4X3U2OXc4eWh4ZHUudHRmP3Q9MTYzMDAzMzc1OTk0NCIpIGZvcm1hdCgidHJ1ZXR5cGUiKTsgfSYjeGE7PC9zdHlsZT48L2RlZnM+PHBhdGggZmlsbD0iIzRBOTE5QiIgZD0iTTI3Ny4zMzMzMzMgODUzLjMzMzMzM2E5NC4wMzczMzMgOTQuMDM3MzMzIDAgMCAxLTkzLjg2NjY2Ni05My44NjY2NjZWMjY0LjUzMzMzM0E5NC4wMzczMzMgOTQuMDM3MzMzIDAgMCAxIDI3Ny4zMzMzMzMgMTcwLjY2NjY2N2gzODYuOTAxMzM0YzE1Ljc4NjY2Ny0wLjEyOCAzMC45MzMzMzMgNi4wMTYgNDIuMTU0NjY2IDE3LjA2NjY2NmwxMjYuNDY0IDEyNi40NjRhMjUuNiAyNS42IDAgMCAxIDcuNjggMTguNjAyNjY3djQyNi42NjY2NjdhOTQuMDM3MzMzIDk0LjAzNzMzMyAwIDAgMS05My44NjY2NjYgOTMuODY2NjY2aC00NjkuMzMzMzM0eiBtMC02MzEuNDY2NjY2YTQyLjY2NjY2NyA0Mi42NjY2NjcgMCAwIDAtNDIuNjY2NjY2IDQyLjY2NjY2NnY0OTQuOTMzMzM0YTQyLjY2NjY2NyA0Mi42NjY2NjcgMCAwIDAgNDIuNjY2NjY2IDQyLjY2NjY2Nmg0NjkuMzMzMzM0YTQyLjY2NjY2NyA0Mi42NjY2NjcgMCAwIDAgNDIuNjY2NjY2LTQyLjY2NjY2NlYzNDMuMzgxMzMzbC0xMTkuNDY2NjY2LTExOS40NjY2NjZhOC41MzMzMzMgOC41MzMzMzMgMCAwIDAtNS42MzItMi4wNDhIMjc3LjMzMzMzM3ogbTkyLjg0MjY2NyAxNzguNTZoLTM4LjkxMlYzNjQuMzczMzMzaDM4LjkxMnYzNi4wNTMzMzR6IG0tMzguOTEyIDE5Ljk2OGgzOC45MTJ2MTQyLjYzNDY2NmMwLjU5NzMzMyAxMy4zNTQ2NjctMC42NCAyNi43NTItMy42NjkzMzMgMzkuNzY1MzM0YTMyLjQyNjY2NyAzMi40MjY2NjcgMCAwIDEtMTQuMTIyNjY3IDE4LjA5MDY2NmMtOC4xMDY2NjcgNC42MDgtMTcuMzY1MzMzIDYuODI2NjY3LTI2LjcwOTMzMyA2LjQ4NTMzNC00LjE4MTMzMyAwLTguMzYyNjY3LTAuMzg0LTEyLjU0NC0xLjA2NjY2N0ExNjguMjc3MzMzIDE2OC4yNzczMzMgMCAwIDEgMjk4LjY2NjY2NyA2MjMuMjMybDYuODI2NjY2LTMzLjMyMjY2NyA1LjEyIDAuOTM4NjY3YzEuNTM2IDAuMjEzMzMzIDMuMDI5MzMzIDAuMzQxMzMzIDQuNTIyNjY3IDAuMzQxMzMzYTE2LjY0IDE2LjY0IDAgMCAwIDkuODEzMzMzLTIuNjAyNjY2IDEyLjIwMjY2NyAxMi4yMDI2NjcgMCAwIDAgNS4wMzQ2NjctNi4xNDRjMS4xOTQ2NjctNy4xNjggMS42MjEzMzMtMTQuNDIxMzMzIDEuMjgtMjEuNjMyVjQyMC4zOTQ2Njd6IG04NS42NzQ2NjcgMjAzLjIyMTMzM1Y0MjAuMzk0NjY3aDM2LjMwOTMzM3YyMS41ODkzMzNhNTQuNCA1NC40IDAgMCAxIDQ1Ljg2NjY2Ny0yNC45MTczMzNjMTYuODEwNjY3LTAuMTcwNjY3IDMyLjc2OCA3LjI1MzMzMyA0My41MiAyMC4wOTYgMTIuOCAxNS43ODY2NjcgMTkuMTU3MzMzIDM1Ljc1NDY2NyAxNy45MiA1Ni4wMjEzMzMgMS4yOCAyMC42NTA2NjctNS4xMiA0MS4wODgtMTguMDQ4IDU3LjMwMTMzM2E1Ni4yMzQ2NjcgNTYuMjM0NjY3IDAgMCAxLTQzLjY0OCAyMC40OCA1MC4xMzMzMzMgNTAuMTMzMzMzIDAgMCAxLTIyLjEwMTMzNC00Ljg2NGMtNy44OTMzMzMtNC4yNjY2NjctMTQuOTMzMzMzLTkuODk4NjY3LTIwLjkwNjY2Ni0xNi42NHY3NC4xNTQ2NjdoLTM4LjkxMnogbTQ3Ljk1NzMzMy0xNjQuNzM2YTQ5LjA2NjY2NyA0OS4wNjY2NjcgMCAwIDAtOS40NzIgMzIuNTk3MzMzYy0xLjAyNCAxMi45NzA2NjcgMi40MzIgMjUuOTQxMzMzIDkuODEzMzMzIDM2LjY5MzMzNGEzMC4wOCAzMC4wOCAwIDAgMCAyNC4wMjEzMzQgMTEuODE4NjY2IDI4LjAzMiAyOC4wMzIgMCAwIDAgMjIuNjEzMzMzLTEwLjgzNzMzM2M2LjkxMi0xMC41Mzg2NjcgMTAuMDY5MzMzLTIzLjEyNTMzMyA4Ljk2LTM1LjcxMmE1My4yNDggNTMuMjQ4IDAgMCAwLTkuMjU4NjY3LTM0LjM0NjY2NyAyOC43MTQ2NjcgMjguNzE0NjY3IDAgMCAwLTIzLjA0LTExLjI2NCAyOS44NjY2NjcgMjkuODY2NjY3IDAgMCAwLTIzLjYzNzMzMyAxMS4wNTA2Njd6IG0xMjkuOTIgMTIzLjIyMTMzM2gtMC4wNDI2NjdsMC4xMjgtNC43MzYgNDQuNTAxMzM0IDUuMjkwNjY3YTE1LjUzMDY2NyAxNS41MzA2NjcgMCAwIDAgNS4xMiAxMC43OTQ2NjcgMjkuNjUzMzMzIDI5LjY1MzMzMyAwIDAgMCAxNy40OTMzMzMgNC4xMzg2NjZjNy44OTMzMzMgMC40NjkzMzMgMTUuNzg2NjY3LTEuMTA5MzMzIDIyLjg2OTMzMy00LjYwOGExOC43NzMzMzMgMTguNzczMzMzIDAgMCAwIDcuNzIyNjY3LTkuODEzMzMzIDU4Ljg4IDU4Ljg4IDAgMCAwIDEuODM0NjY3LTE3Ljkydi0yMS41MDRhNTIuODY0IDUyLjg2NCAwIDAgMS00NC4wNzQ2NjcgMjMuODkzMzMzIDU0LjQgNTQuNCAwIDAgMS00Ny4wMTg2NjctMjUuMDQ1MzMzIDg1LjYzMiA4NS42MzIgMCAwIDEtMTMuNTY4LTQ5LjQwOCA4MS4xOTQ2NjcgODEuMTk0NjY3IDAgMCAxIDE3Ljc5Mi01Ni41NzYgNTcuNDcyIDU3LjQ3MiAwIDAgMSA0NC4yODgtMTkuNTQxMzMzYzE4LjA5MDY2Ny0wLjA4NTMzMyAzNC45ODY2NjcgOC45NiA0NS4wNTYgMjMuOTc4NjY2di0yMC42NTA2NjZoMzYuNTIyNjY3djEzMi4wOTZjMC41MTIgMTMuMTQxMzMzLTAuOTM4NjY3IDI2LjI0LTQuMjY2NjY3IDM4Ljk1NDY2Ni0yLjMwNCA3LjYzNzMzMy02LjQ0MjY2NyAxNC41OTItMTIuMDc0NjY2IDIwLjIyNC01Ljk3MzMzMyA1LjMzMzMzMy0xMy4wNTYgOS4zMDEzMzMtMjAuNzM2IDExLjU2MjY2N2ExMTAuOTMzMzMzIDExMC45MzMzMzMgMCAwIDEtMzIuODEwNjY3IDQuMTM4NjY3Yy0yNC45MTczMzMgMC00Mi42NjY2NjctNC4yNjY2NjctNTMuMDc3MzMzLTEyLjg4NTMzNGE0MC4xNDkzMzMgNDAuMTQ5MzMzIDAgMCAxLTE1LjY1ODY2Ny0zMi40MjY2NjZ6IG00My45ODkzMzMtMTI0LjMzMDY2NmE1MS4wMjkzMzMgNTEuMDI5MzMzIDAgMCAwLTkuMDAyNjY2IDMzLjE5NDY2NmMtMS4wMjQgMTIuMTE3MzMzIDIuMTc2IDI0LjIzNDY2NyA5LjA0NTMzMyAzNC4zMDRhMjguMTYgMjguMTYgMCAwIDAgMjIuNCAxMC45MjI2NjcgMzAuOTc2IDMwLjk3NiAwIDAgMCAyNC4xMDY2NjctMTEuMjIxMzMzIDQ4LjY0IDQ4LjY0IDAgMCAwIDkuODEzMzMzLTMzLjA2NjY2NyA1MS41NDEzMzMgNTEuNTQxMzMzIDAgMCAwLTkuMzg2NjY3LTMzLjk2MjY2NyAyOS45NTIgMjkuOTUyIDAgMCAwLTIzLjg5MzMzMy0xMS4wOTMzMzMgMjguNzU3MzMzIDI4Ljc1NzMzMyAwIDAgMC0yMy4wNCAxMC45MjI2Njd6Ii8+PC9zdmc+;fontColor=#FFFFFF;strokeColor=#EFF1F3;strokeWidth=1;fillColor=#E6D7C2;" parent="1" vertex="1">
          <mxGeometry x="64" y="393" width="32" height="32" as="geometry" />
        </mxCell>
        <mxCell id="Jgx5MPd64Z9ybUuF26Cs-10" value="" style="shape=image;verticalLabelPosition=bottom;verticalAlign=top;imageAspect=0;aspect=fixed;image=data:image/svg+xml,PHN2ZyB4bWxuczp4bGluaz0iaHR0cDovL3d3dy53My5vcmcvMTk5OS94bGluayIgeG1sbnM9Imh0dHA6Ly93d3cudzMub3JnLzIwMDAvc3ZnIiBoZWlnaHQ9IjIwMCIgd2lkdGg9IjIwMCIgdmVyc2lvbj0iMS4xIiB2aWV3Qm94PSIwIDAgMTAyNCAxMDI0IiBjbGFzcz0iaWNvbiI+PGRlZnM+PHN0eWxlIHR5cGU9InRleHQvY3NzIj5AZm9udC1mYWNlIHsgZm9udC1mYW1pbHk6IGZlZWRiYWNrLWljb25mb250OyBzcmM6IHVybCgiLy9hdC5hbGljZG4uY29tL3QvZm9udF8xMDMxMTU4X3U2OXc4eWh4ZHUud29mZjI/dD0xNjMwMDMzNzU5OTQ0IikgZm9ybWF0KCJ3b2ZmMiIpLCB1cmwoIi8vYXQuYWxpY2RuLmNvbS90L2ZvbnRfMTAzMTE1OF91Njl3OHloeGR1LndvZmY/dD0xNjMwMDMzNzU5OTQ0IikgZm9ybWF0KCJ3b2ZmIiksIHVybCgiLy9hdC5hbGljZG4uY29tL3QvZm9udF8xMDMxMTU4X3U2OXc4eWh4ZHUudHRmP3Q9MTYzMDAzMzc1OTk0NCIpIGZvcm1hdCgidHJ1ZXR5cGUiKTsgfSYjeGE7PC9zdHlsZT48L2RlZnM+PHBhdGggZmlsbD0iIzRBOTE5QiIgZD0iTTI3Ny4zMzMzMzMgODUzLjMzMzMzM2E5NC4wMzczMzMgOTQuMDM3MzMzIDAgMCAxLTkzLjg2NjY2Ni05My44NjY2NjZWMjY0LjUzMzMzM0E5NC4wMzczMzMgOTQuMDM3MzMzIDAgMCAxIDI3Ny4zMzMzMzMgMTcwLjY2NjY2N2gzODYuOTAxMzM0YzE1Ljc4NjY2Ny0wLjEyOCAzMC45MzMzMzMgNi4wMTYgNDIuMTU0NjY2IDE3LjA2NjY2NmwxMjYuNDY0IDEyNi40NjRhMjUuNiAyNS42IDAgMCAxIDcuNjggMTguNjAyNjY3djQyNi42NjY2NjdhOTQuMDM3MzMzIDk0LjAzNzMzMyAwIDAgMS05My44NjY2NjYgOTMuODY2NjY2aC00NjkuMzMzMzM0eiBtMC02MzEuNDY2NjY2YTQyLjY2NjY2NyA0Mi42NjY2NjcgMCAwIDAtNDIuNjY2NjY2IDQyLjY2NjY2NnY0OTQuOTMzMzM0YTQyLjY2NjY2NyA0Mi42NjY2NjcgMCAwIDAgNDIuNjY2NjY2IDQyLjY2NjY2Nmg0NjkuMzMzMzM0YTQyLjY2NjY2NyA0Mi42NjY2NjcgMCAwIDAgNDIuNjY2NjY2LTQyLjY2NjY2NlYzNDMuMzgxMzMzbC0xMTkuNDY2NjY2LTExOS40NjY2NjZhOC41MzMzMzMgOC41MzMzMzMgMCAwIDAtNS42MzItMi4wNDhIMjc3LjMzMzMzM3ogbTkyLjg0MjY2NyAxNzguNTZoLTM4LjkxMlYzNjQuMzczMzMzaDM4LjkxMnYzNi4wNTMzMzR6IG0tMzguOTEyIDE5Ljk2OGgzOC45MTJ2MTQyLjYzNDY2NmMwLjU5NzMzMyAxMy4zNTQ2NjctMC42NCAyNi43NTItMy42NjkzMzMgMzkuNzY1MzM0YTMyLjQyNjY2NyAzMi40MjY2NjcgMCAwIDEtMTQuMTIyNjY3IDE4LjA5MDY2NmMtOC4xMDY2NjcgNC42MDgtMTcuMzY1MzMzIDYuODI2NjY3LTI2LjcwOTMzMyA2LjQ4NTMzNC00LjE4MTMzMyAwLTguMzYyNjY3LTAuMzg0LTEyLjU0NC0xLjA2NjY2N0ExNjguMjc3MzMzIDE2OC4yNzczMzMgMCAwIDEgMjk4LjY2NjY2NyA2MjMuMjMybDYuODI2NjY2LTMzLjMyMjY2NyA1LjEyIDAuOTM4NjY3YzEuNTM2IDAuMjEzMzMzIDMuMDI5MzMzIDAuMzQxMzMzIDQuNTIyNjY3IDAuMzQxMzMzYTE2LjY0IDE2LjY0IDAgMCAwIDkuODEzMzMzLTIuNjAyNjY2IDEyLjIwMjY2NyAxMi4yMDI2NjcgMCAwIDAgNS4wMzQ2NjctNi4xNDRjMS4xOTQ2NjctNy4xNjggMS42MjEzMzMtMTQuNDIxMzMzIDEuMjgtMjEuNjMyVjQyMC4zOTQ2Njd6IG04NS42NzQ2NjcgMjAzLjIyMTMzM1Y0MjAuMzk0NjY3aDM2LjMwOTMzM3YyMS41ODkzMzNhNTQuNCA1NC40IDAgMCAxIDQ1Ljg2NjY2Ny0yNC45MTczMzNjMTYuODEwNjY3LTAuMTcwNjY3IDMyLjc2OCA3LjI1MzMzMyA0My41MiAyMC4wOTYgMTIuOCAxNS43ODY2NjcgMTkuMTU3MzMzIDM1Ljc1NDY2NyAxNy45MiA1Ni4wMjEzMzMgMS4yOCAyMC42NTA2NjctNS4xMiA0MS4wODgtMTguMDQ4IDU3LjMwMTMzM2E1Ni4yMzQ2NjcgNTYuMjM0NjY3IDAgMCAxLTQzLjY0OCAyMC40OCA1MC4xMzMzMzMgNTAuMTMzMzMzIDAgMCAxLTIyLjEwMTMzNC00Ljg2NGMtNy44OTMzMzMtNC4yNjY2NjctMTQuOTMzMzMzLTkuODk4NjY3LTIwLjkwNjY2Ni0xNi42NHY3NC4xNTQ2NjdoLTM4LjkxMnogbTQ3Ljk1NzMzMy0xNjQuNzM2YTQ5LjA2NjY2NyA0OS4wNjY2NjcgMCAwIDAtOS40NzIgMzIuNTk3MzMzYy0xLjAyNCAxMi45NzA2NjcgMi40MzIgMjUuOTQxMzMzIDkuODEzMzMzIDM2LjY5MzMzNGEzMC4wOCAzMC4wOCAwIDAgMCAyNC4wMjEzMzQgMTEuODE4NjY2IDI4LjAzMiAyOC4wMzIgMCAwIDAgMjIuNjEzMzMzLTEwLjgzNzMzM2M2LjkxMi0xMC41Mzg2NjcgMTAuMDY5MzMzLTIzLjEyNTMzMyA4Ljk2LTM1LjcxMmE1My4yNDggNTMuMjQ4IDAgMCAwLTkuMjU4NjY3LTM0LjM0NjY2NyAyOC43MTQ2NjcgMjguNzE0NjY3IDAgMCAwLTIzLjA0LTExLjI2NCAyOS44NjY2NjcgMjkuODY2NjY3IDAgMCAwLTIzLjYzNzMzMyAxMS4wNTA2Njd6IG0xMjkuOTIgMTIzLjIyMTMzM2gtMC4wNDI2NjdsMC4xMjgtNC43MzYgNDQuNTAxMzM0IDUuMjkwNjY3YTE1LjUzMDY2NyAxNS41MzA2NjcgMCAwIDAgNS4xMiAxMC43OTQ2NjcgMjkuNjUzMzMzIDI5LjY1MzMzMyAwIDAgMCAxNy40OTMzMzMgNC4xMzg2NjZjNy44OTMzMzMgMC40NjkzMzMgMTUuNzg2NjY3LTEuMTA5MzMzIDIyLjg2OTMzMy00LjYwOGExOC43NzMzMzMgMTguNzczMzMzIDAgMCAwIDcuNzIyNjY3LTkuODEzMzMzIDU4Ljg4IDU4Ljg4IDAgMCAwIDEuODM0NjY3LTE3Ljkydi0yMS41MDRhNTIuODY0IDUyLjg2NCAwIDAgMS00NC4wNzQ2NjcgMjMuODkzMzMzIDU0LjQgNTQuNCAwIDAgMS00Ny4wMTg2NjctMjUuMDQ1MzMzIDg1LjYzMiA4NS42MzIgMCAwIDEtMTMuNTY4LTQ5LjQwOCA4MS4xOTQ2NjcgODEuMTk0NjY3IDAgMCAxIDE3Ljc5Mi01Ni41NzYgNTcuNDcyIDU3LjQ3MiAwIDAgMSA0NC4yODgtMTkuNTQxMzMzYzE4LjA5MDY2Ny0wLjA4NTMzMyAzNC45ODY2NjcgOC45NiA0NS4wNTYgMjMuOTc4NjY2di0yMC42NTA2NjZoMzYuNTIyNjY3djEzMi4wOTZjMC41MTIgMTMuMTQxMzMzLTAuOTM4NjY3IDI2LjI0LTQuMjY2NjY3IDM4Ljk1NDY2Ni0yLjMwNCA3LjYzNzMzMy02LjQ0MjY2NyAxNC41OTItMTIuMDc0NjY2IDIwLjIyNC01Ljk3MzMzMyA1LjMzMzMzMy0xMy4wNTYgOS4zMDEzMzMtMjAuNzM2IDExLjU2MjY2N2ExMTAuOTMzMzMzIDExMC45MzMzMzMgMCAwIDEtMzIuODEwNjY3IDQuMTM4NjY3Yy0yNC45MTczMzMgMC00Mi42NjY2NjctNC4yNjY2NjctNTMuMDc3MzMzLTEyLjg4NTMzNGE0MC4xNDkzMzMgNDAuMTQ5MzMzIDAgMCAxLTE1LjY1ODY2Ny0zMi40MjY2NjZ6IG00My45ODkzMzMtMTI0LjMzMDY2NmE1MS4wMjkzMzMgNTEuMDI5MzMzIDAgMCAwLTkuMDAyNjY2IDMzLjE5NDY2NmMtMS4wMjQgMTIuMTE3MzMzIDIuMTc2IDI0LjIzNDY2NyA5LjA0NTMzMyAzNC4zMDRhMjguMTYgMjguMTYgMCAwIDAgMjIuNCAxMC45MjI2NjcgMzAuOTc2IDMwLjk3NiAwIDAgMCAyNC4xMDY2NjctMTEuMjIxMzMzIDQ4LjY0IDQ4LjY0IDAgMCAwIDkuODEzMzMzLTMzLjA2NjY2NyA1MS41NDEzMzMgNTEuNTQxMzMzIDAgMCAwLTkuMzg2NjY3LTMzLjk2MjY2NyAyOS45NTIgMjkuOTUyIDAgMCAwLTIzLjg5MzMzMy0xMS4wOTMzMzMgMjguNzU3MzMzIDI4Ljc1NzMzMyAwIDAgMC0yMy4wNCAxMC45MjI2Njd6Ii8+PC9zdmc+;fontColor=#FFFFFF;strokeColor=#EFF1F3;strokeWidth=1;fillColor=#E6D7C2;" parent="1" vertex="1">
          <mxGeometry x="42" y="393" width="32" height="32" as="geometry" />
        </mxCell>
        <mxCell id="Jgx5MPd64Z9ybUuF26Cs-11" value="" style="shape=image;verticalLabelPosition=bottom;verticalAlign=top;imageAspect=0;aspect=fixed;image=data:image/svg+xml,PHN2ZyB4bWxuczp4bGluaz0iaHR0cDovL3d3dy53My5vcmcvMTk5OS94bGluayIgeG1sbnM9Imh0dHA6Ly93d3cudzMub3JnLzIwMDAvc3ZnIiBoZWlnaHQ9IjIwMCIgd2lkdGg9IjIwMCIgdmVyc2lvbj0iMS4xIiB2aWV3Qm94PSIwIDAgMTAyNCAxMDI0IiBjbGFzcz0iaWNvbiI+PGRlZnM+PHN0eWxlIHR5cGU9InRleHQvY3NzIj5AZm9udC1mYWNlIHsgZm9udC1mYW1pbHk6IGZlZWRiYWNrLWljb25mb250OyBzcmM6IHVybCgiLy9hdC5hbGljZG4uY29tL3QvZm9udF8xMDMxMTU4X3U2OXc4eWh4ZHUud29mZjI/dD0xNjMwMDMzNzU5OTQ0IikgZm9ybWF0KCJ3b2ZmMiIpLCB1cmwoIi8vYXQuYWxpY2RuLmNvbS90L2ZvbnRfMTAzMTE1OF91Njl3OHloeGR1LndvZmY/dD0xNjMwMDMzNzU5OTQ0IikgZm9ybWF0KCJ3b2ZmIiksIHVybCgiLy9hdC5hbGljZG4uY29tL3QvZm9udF8xMDMxMTU4X3U2OXc4eWh4ZHUudHRmP3Q9MTYzMDAzMzc1OTk0NCIpIGZvcm1hdCgidHJ1ZXR5cGUiKTsgfSYjeGE7PC9zdHlsZT48L2RlZnM+PHBhdGggZmlsbD0iIzRBOTE5QiIgZD0iTTI3Ny4zMzMzMzMgODUzLjMzMzMzM2E5NC4wMzczMzMgOTQuMDM3MzMzIDAgMCAxLTkzLjg2NjY2Ni05My44NjY2NjZWMjY0LjUzMzMzM0E5NC4wMzczMzMgOTQuMDM3MzMzIDAgMCAxIDI3Ny4zMzMzMzMgMTcwLjY2NjY2N2gzODYuOTAxMzM0YzE1Ljc4NjY2Ny0wLjEyOCAzMC45MzMzMzMgNi4wMTYgNDIuMTU0NjY2IDE3LjA2NjY2NmwxMjYuNDY0IDEyNi40NjRhMjUuNiAyNS42IDAgMCAxIDcuNjggMTguNjAyNjY3djQyNi42NjY2NjdhOTQuMDM3MzMzIDk0LjAzNzMzMyAwIDAgMS05My44NjY2NjYgOTMuODY2NjY2aC00NjkuMzMzMzM0eiBtMC02MzEuNDY2NjY2YTQyLjY2NjY2NyA0Mi42NjY2NjcgMCAwIDAtNDIuNjY2NjY2IDQyLjY2NjY2NnY0OTQuOTMzMzM0YTQyLjY2NjY2NyA0Mi42NjY2NjcgMCAwIDAgNDIuNjY2NjY2IDQyLjY2NjY2Nmg0NjkuMzMzMzM0YTQyLjY2NjY2NyA0Mi42NjY2NjcgMCAwIDAgNDIuNjY2NjY2LTQyLjY2NjY2NlYzNDMuMzgxMzMzbC0xMTkuNDY2NjY2LTExOS40NjY2NjZhOC41MzMzMzMgOC41MzMzMzMgMCAwIDAtNS42MzItMi4wNDhIMjc3LjMzMzMzM3ogbTkyLjg0MjY2NyAxNzguNTZoLTM4LjkxMlYzNjQuMzczMzMzaDM4LjkxMnYzNi4wNTMzMzR6IG0tMzguOTEyIDE5Ljk2OGgzOC45MTJ2MTQyLjYzNDY2NmMwLjU5NzMzMyAxMy4zNTQ2NjctMC42NCAyNi43NTItMy42NjkzMzMgMzkuNzY1MzM0YTMyLjQyNjY2NyAzMi40MjY2NjcgMCAwIDEtMTQuMTIyNjY3IDE4LjA5MDY2NmMtOC4xMDY2NjcgNC42MDgtMTcuMzY1MzMzIDYuODI2NjY3LTI2LjcwOTMzMyA2LjQ4NTMzNC00LjE4MTMzMyAwLTguMzYyNjY3LTAuMzg0LTEyLjU0NC0xLjA2NjY2N0ExNjguMjc3MzMzIDE2OC4yNzczMzMgMCAwIDEgMjk4LjY2NjY2NyA2MjMuMjMybDYuODI2NjY2LTMzLjMyMjY2NyA1LjEyIDAuOTM4NjY3YzEuNTM2IDAuMjEzMzMzIDMuMDI5MzMzIDAuMzQxMzMzIDQuNTIyNjY3IDAuMzQxMzMzYTE2LjY0IDE2LjY0IDAgMCAwIDkuODEzMzMzLTIuNjAyNjY2IDEyLjIwMjY2NyAxMi4yMDI2NjcgMCAwIDAgNS4wMzQ2NjctNi4xNDRjMS4xOTQ2NjctNy4xNjggMS42MjEzMzMtMTQuNDIxMzMzIDEuMjgtMjEuNjMyVjQyMC4zOTQ2Njd6IG04NS42NzQ2NjcgMjAzLjIyMTMzM1Y0MjAuMzk0NjY3aDM2LjMwOTMzM3YyMS41ODkzMzNhNTQuNCA1NC40IDAgMCAxIDQ1Ljg2NjY2Ny0yNC45MTczMzNjMTYuODEwNjY3LTAuMTcwNjY3IDMyLjc2OCA3LjI1MzMzMyA0My41MiAyMC4wOTYgMTIuOCAxNS43ODY2NjcgMTkuMTU3MzMzIDM1Ljc1NDY2NyAxNy45MiA1Ni4wMjEzMzMgMS4yOCAyMC42NTA2NjctNS4xMiA0MS4wODgtMTguMDQ4IDU3LjMwMTMzM2E1Ni4yMzQ2NjcgNTYuMjM0NjY3IDAgMCAxLTQzLjY0OCAyMC40OCA1MC4xMzMzMzMgNTAuMTMzMzMzIDAgMCAxLTIyLjEwMTMzNC00Ljg2NGMtNy44OTMzMzMtNC4yNjY2NjctMTQuOTMzMzMzLTkuODk4NjY3LTIwLjkwNjY2Ni0xNi42NHY3NC4xNTQ2NjdoLTM4LjkxMnogbTQ3Ljk1NzMzMy0xNjQuNzM2YTQ5LjA2NjY2NyA0OS4wNjY2NjcgMCAwIDAtOS40NzIgMzIuNTk3MzMzYy0xLjAyNCAxMi45NzA2NjcgMi40MzIgMjUuOTQxMzMzIDkuODEzMzMzIDM2LjY5MzMzNGEzMC4wOCAzMC4wOCAwIDAgMCAyNC4wMjEzMzQgMTEuODE4NjY2IDI4LjAzMiAyOC4wMzIgMCAwIDAgMjIuNjEzMzMzLTEwLjgzNzMzM2M2LjkxMi0xMC41Mzg2NjcgMTAuMDY5MzMzLTIzLjEyNTMzMyA4Ljk2LTM1LjcxMmE1My4yNDggNTMuMjQ4IDAgMCAwLTkuMjU4NjY3LTM0LjM0NjY2NyAyOC43MTQ2NjcgMjguNzE0NjY3IDAgMCAwLTIzLjA0LTExLjI2NCAyOS44NjY2NjcgMjkuODY2NjY3IDAgMCAwLTIzLjYzNzMzMyAxMS4wNTA2Njd6IG0xMjkuOTIgMTIzLjIyMTMzM2gtMC4wNDI2NjdsMC4xMjgtNC43MzYgNDQuNTAxMzM0IDUuMjkwNjY3YTE1LjUzMDY2NyAxNS41MzA2NjcgMCAwIDAgNS4xMiAxMC43OTQ2NjcgMjkuNjUzMzMzIDI5LjY1MzMzMyAwIDAgMCAxNy40OTMzMzMgNC4xMzg2NjZjNy44OTMzMzMgMC40NjkzMzMgMTUuNzg2NjY3LTEuMTA5MzMzIDIyLjg2OTMzMy00LjYwOGExOC43NzMzMzMgMTguNzczMzMzIDAgMCAwIDcuNzIyNjY3LTkuODEzMzMzIDU4Ljg4IDU4Ljg4IDAgMCAwIDEuODM0NjY3LTE3Ljkydi0yMS41MDRhNTIuODY0IDUyLjg2NCAwIDAgMS00NC4wNzQ2NjcgMjMuODkzMzMzIDU0LjQgNTQuNCAwIDAgMS00Ny4wMTg2NjctMjUuMDQ1MzMzIDg1LjYzMiA4NS42MzIgMCAwIDEtMTMuNTY4LTQ5LjQwOCA4MS4xOTQ2NjcgODEuMTk0NjY3IDAgMCAxIDE3Ljc5Mi01Ni41NzYgNTcuNDcyIDU3LjQ3MiAwIDAgMSA0NC4yODgtMTkuNTQxMzMzYzE4LjA5MDY2Ny0wLjA4NTMzMyAzNC45ODY2NjcgOC45NiA0NS4wNTYgMjMuOTc4NjY2di0yMC42NTA2NjZoMzYuNTIyNjY3djEzMi4wOTZjMC41MTIgMTMuMTQxMzMzLTAuOTM4NjY3IDI2LjI0LTQuMjY2NjY3IDM4Ljk1NDY2Ni0yLjMwNCA3LjYzNzMzMy02LjQ0MjY2NyAxNC41OTItMTIuMDc0NjY2IDIwLjIyNC01Ljk3MzMzMyA1LjMzMzMzMy0xMy4wNTYgOS4zMDEzMzMtMjAuNzM2IDExLjU2MjY2N2ExMTAuOTMzMzMzIDExMC45MzMzMzMgMCAwIDEtMzIuODEwNjY3IDQuMTM4NjY3Yy0yNC45MTczMzMgMC00Mi42NjY2NjctNC4yNjY2NjctNTMuMDc3MzMzLTEyLjg4NTMzNGE0MC4xNDkzMzMgNDAuMTQ5MzMzIDAgMCAxLTE1LjY1ODY2Ny0zMi40MjY2NjZ6IG00My45ODkzMzMtMTI0LjMzMDY2NmE1MS4wMjkzMzMgNTEuMDI5MzMzIDAgMCAwLTkuMDAyNjY2IDMzLjE5NDY2NmMtMS4wMjQgMTIuMTE3MzMzIDIuMTc2IDI0LjIzNDY2NyA5LjA0NTMzMyAzNC4zMDRhMjguMTYgMjguMTYgMCAwIDAgMjIuNCAxMC45MjI2NjcgMzAuOTc2IDMwLjk3NiAwIDAgMCAyNC4xMDY2NjctMTEuMjIxMzMzIDQ4LjY0IDQ4LjY0IDAgMCAwIDkuODEzMzMzLTMzLjA2NjY2NyA1MS41NDEzMzMgNTEuNTQxMzMzIDAgMCAwLTkuMzg2NjY3LTMzLjk2MjY2NyAyOS45NTIgMjkuOTUyIDAgMCAwLTIzLjg5MzMzMy0xMS4wOTMzMzMgMjguNzU3MzMzIDI4Ljc1NzMzMyAwIDAgMC0yMy4wNCAxMC45MjI2Njd6Ii8+PC9zdmc+;fontColor=#FFFFFF;strokeColor=#EFF1F3;strokeWidth=1;fillColor=#E6D7C2;" parent="1" vertex="1">
          <mxGeometry x="20" y="393" width="32" height="32" as="geometry" />
        </mxCell>
        <mxCell id="Jgx5MPd64Z9ybUuF26Cs-12" value="" style="shape=flexArrow;endArrow=classic;html=1;rounded=0;fontColor=#FFFFFF;strokeColor=none;fillColor=#4A919B;" parent="1" edge="1">
          <mxGeometry width="50" height="50" relative="1" as="geometry">
            <mxPoint x="104" y="459.80999999999995" as="sourcePoint" />
            <mxPoint x="154" y="459.80999999999995" as="targetPoint" />
          </mxGeometry>
        </mxCell>
        <mxCell id="Jgx5MPd64Z9ybUuF26Cs-13" value="" style="shape=image;verticalLabelPosition=bottom;verticalAlign=top;imageAspect=0;aspect=fixed;image=data:image/svg+xml,PHN2ZyB4bWxuczp4bGluaz0iaHR0cDovL3d3dy53My5vcmcvMTk5OS94bGluayIgeG1sbnM9Imh0dHA6Ly93d3cudzMub3JnLzIwMDAvc3ZnIiBoZWlnaHQ9IjIwMCIgd2lkdGg9IjIwMCIgdmVyc2lvbj0iMS4xIiB2aWV3Qm94PSIwIDAgMTAyNCAxMDI0IiBjbGFzcz0iaWNvbiI+PGRlZnM+PHN0eWxlIHR5cGU9InRleHQvY3NzIj5AZm9udC1mYWNlIHsgZm9udC1mYW1pbHk6IGZlZWRiYWNrLWljb25mb250OyBzcmM6IHVybCgiLy9hdC5hbGljZG4uY29tL3QvZm9udF8xMDMxMTU4X3U2OXc4eWh4ZHUud29mZjI/dD0xNjMwMDMzNzU5OTQ0IikgZm9ybWF0KCJ3b2ZmMiIpLCB1cmwoIi8vYXQuYWxpY2RuLmNvbS90L2ZvbnRfMTAzMTE1OF91Njl3OHloeGR1LndvZmY/dD0xNjMwMDMzNzU5OTQ0IikgZm9ybWF0KCJ3b2ZmIiksIHVybCgiLy9hdC5hbGljZG4uY29tL3QvZm9udF8xMDMxMTU4X3U2OXc4eWh4ZHUudHRmP3Q9MTYzMDAzMzc1OTk0NCIpIGZvcm1hdCgidHJ1ZXR5cGUiKTsgfSYjeGE7PC9zdHlsZT48L2RlZnM+PHBhdGggZmlsbD0iIzRBOTE5QiIgZD0iTTI3Ny4zMzMzMzMgODUzLjMzMzMzM2E5NC4wMzczMzMgOTQuMDM3MzMzIDAgMCAxLTkzLjg2NjY2Ni05My44NjY2NjZWMjY0LjUzMzMzM0E5NC4wMzczMzMgOTQuMDM3MzMzIDAgMCAxIDI3Ny4zMzMzMzMgMTcwLjY2NjY2N2gzODYuOTAxMzM0YzE1Ljc4NjY2Ny0wLjEyOCAzMC45MzMzMzMgNi4wMTYgNDIuMTU0NjY2IDE3LjA2NjY2NmwxMjYuNDY0IDEyNi40NjRhMjUuNiAyNS42IDAgMCAxIDcuNjggMTguNjAyNjY3djQyNi42NjY2NjdhOTQuMDM3MzMzIDk0LjAzNzMzMyAwIDAgMS05My44NjY2NjYgOTMuODY2NjY2aC00NjkuMzMzMzM0eiBtMC02MzEuNDY2NjY2YTQyLjY2NjY2NyA0Mi42NjY2NjcgMCAwIDAtNDIuNjY2NjY2IDQyLjY2NjY2NnY0OTQuOTMzMzM0YTQyLjY2NjY2NyA0Mi42NjY2NjcgMCAwIDAgNDIuNjY2NjY2IDQyLjY2NjY2Nmg0NjkuMzMzMzM0YTQyLjY2NjY2NyA0Mi42NjY2NjcgMCAwIDAgNDIuNjY2NjY2LTQyLjY2NjY2NlYzNDMuMzgxMzMzbC0xMTkuNDY2NjY2LTExOS40NjY2NjZhOC41MzMzMzMgOC41MzMzMzMgMCAwIDAtNS42MzItMi4wNDhIMjc3LjMzMzMzM3ogbTkyLjg0MjY2NyAxNzguNTZoLTM4LjkxMlYzNjQuMzczMzMzaDM4LjkxMnYzNi4wNTMzMzR6IG0tMzguOTEyIDE5Ljk2OGgzOC45MTJ2MTQyLjYzNDY2NmMwLjU5NzMzMyAxMy4zNTQ2NjctMC42NCAyNi43NTItMy42NjkzMzMgMzkuNzY1MzM0YTMyLjQyNjY2NyAzMi40MjY2NjcgMCAwIDEtMTQuMTIyNjY3IDE4LjA5MDY2NmMtOC4xMDY2NjcgNC42MDgtMTcuMzY1MzMzIDYuODI2NjY3LTI2LjcwOTMzMyA2LjQ4NTMzNC00LjE4MTMzMyAwLTguMzYyNjY3LTAuMzg0LTEyLjU0NC0xLjA2NjY2N0ExNjguMjc3MzMzIDE2OC4yNzczMzMgMCAwIDEgMjk4LjY2NjY2NyA2MjMuMjMybDYuODI2NjY2LTMzLjMyMjY2NyA1LjEyIDAuOTM4NjY3YzEuNTM2IDAuMjEzMzMzIDMuMDI5MzMzIDAuMzQxMzMzIDQuNTIyNjY3IDAuMzQxMzMzYTE2LjY0IDE2LjY0IDAgMCAwIDkuODEzMzMzLTIuNjAyNjY2IDEyLjIwMjY2NyAxMi4yMDI2NjcgMCAwIDAgNS4wMzQ2NjctNi4xNDRjMS4xOTQ2NjctNy4xNjggMS42MjEzMzMtMTQuNDIxMzMzIDEuMjgtMjEuNjMyVjQyMC4zOTQ2Njd6IG04NS42NzQ2NjcgMjAzLjIyMTMzM1Y0MjAuMzk0NjY3aDM2LjMwOTMzM3YyMS41ODkzMzNhNTQuNCA1NC40IDAgMCAxIDQ1Ljg2NjY2Ny0yNC45MTczMzNjMTYuODEwNjY3LTAuMTcwNjY3IDMyLjc2OCA3LjI1MzMzMyA0My41MiAyMC4wOTYgMTIuOCAxNS43ODY2NjcgMTkuMTU3MzMzIDM1Ljc1NDY2NyAxNy45MiA1Ni4wMjEzMzMgMS4yOCAyMC42NTA2NjctNS4xMiA0MS4wODgtMTguMDQ4IDU3LjMwMTMzM2E1Ni4yMzQ2NjcgNTYuMjM0NjY3IDAgMCAxLTQzLjY0OCAyMC40OCA1MC4xMzMzMzMgNTAuMTMzMzMzIDAgMCAxLTIyLjEwMTMzNC00Ljg2NGMtNy44OTMzMzMtNC4yNjY2NjctMTQuOTMzMzMzLTkuODk4NjY3LTIwLjkwNjY2Ni0xNi42NHY3NC4xNTQ2NjdoLTM4LjkxMnogbTQ3Ljk1NzMzMy0xNjQuNzM2YTQ5LjA2NjY2NyA0OS4wNjY2NjcgMCAwIDAtOS40NzIgMzIuNTk3MzMzYy0xLjAyNCAxMi45NzA2NjcgMi40MzIgMjUuOTQxMzMzIDkuODEzMzMzIDM2LjY5MzMzNGEzMC4wOCAzMC4wOCAwIDAgMCAyNC4wMjEzMzQgMTEuODE4NjY2IDI4LjAzMiAyOC4wMzIgMCAwIDAgMjIuNjEzMzMzLTEwLjgzNzMzM2M2LjkxMi0xMC41Mzg2NjcgMTAuMDY5MzMzLTIzLjEyNTMzMyA4Ljk2LTM1LjcxMmE1My4yNDggNTMuMjQ4IDAgMCAwLTkuMjU4NjY3LTM0LjM0NjY2NyAyOC43MTQ2NjcgMjguNzE0NjY3IDAgMCAwLTIzLjA0LTExLjI2NCAyOS44NjY2NjcgMjkuODY2NjY3IDAgMCAwLTIzLjYzNzMzMyAxMS4wNTA2Njd6IG0xMjkuOTIgMTIzLjIyMTMzM2gtMC4wNDI2NjdsMC4xMjgtNC43MzYgNDQuNTAxMzM0IDUuMjkwNjY3YTE1LjUzMDY2NyAxNS41MzA2NjcgMCAwIDAgNS4xMiAxMC43OTQ2NjcgMjkuNjUzMzMzIDI5LjY1MzMzMyAwIDAgMCAxNy40OTMzMzMgNC4xMzg2NjZjNy44OTMzMzMgMC40NjkzMzMgMTUuNzg2NjY3LTEuMTA5MzMzIDIyLjg2OTMzMy00LjYwOGExOC43NzMzMzMgMTguNzczMzMzIDAgMCAwIDcuNzIyNjY3LTkuODEzMzMzIDU4Ljg4IDU4Ljg4IDAgMCAwIDEuODM0NjY3LTE3Ljkydi0yMS41MDRhNTIuODY0IDUyLjg2NCAwIDAgMS00NC4wNzQ2NjcgMjMuODkzMzMzIDU0LjQgNTQuNCAwIDAgMS00Ny4wMTg2NjctMjUuMDQ1MzMzIDg1LjYzMiA4NS42MzIgMCAwIDEtMTMuNTY4LTQ5LjQwOCA4MS4xOTQ2NjcgODEuMTk0NjY3IDAgMCAxIDE3Ljc5Mi01Ni41NzYgNTcuNDcyIDU3LjQ3MiAwIDAgMSA0NC4yODgtMTkuNTQxMzMzYzE4LjA5MDY2Ny0wLjA4NTMzMyAzNC45ODY2NjcgOC45NiA0NS4wNTYgMjMuOTc4NjY2di0yMC42NTA2NjZoMzYuNTIyNjY3djEzMi4wOTZjMC41MTIgMTMuMTQxMzMzLTAuOTM4NjY3IDI2LjI0LTQuMjY2NjY3IDM4Ljk1NDY2Ni0yLjMwNCA3LjYzNzMzMy02LjQ0MjY2NyAxNC41OTItMTIuMDc0NjY2IDIwLjIyNC01Ljk3MzMzMyA1LjMzMzMzMy0xMy4wNTYgOS4zMDEzMzMtMjAuNzM2IDExLjU2MjY2N2ExMTAuOTMzMzMzIDExMC45MzMzMzMgMCAwIDEtMzIuODEwNjY3IDQuMTM4NjY3Yy0yNC45MTczMzMgMC00Mi42NjY2NjctNC4yNjY2NjctNTMuMDc3MzMzLTEyLjg4NTMzNGE0MC4xNDkzMzMgNDAuMTQ5MzMzIDAgMCAxLTE1LjY1ODY2Ny0zMi40MjY2NjZ6IG00My45ODkzMzMtMTI0LjMzMDY2NmE1MS4wMjkzMzMgNTEuMDI5MzMzIDAgMCAwLTkuMDAyNjY2IDMzLjE5NDY2NmMtMS4wMjQgMTIuMTE3MzMzIDIuMTc2IDI0LjIzNDY2NyA5LjA0NTMzMyAzNC4zMDRhMjguMTYgMjguMTYgMCAwIDAgMjIuNCAxMC45MjI2NjcgMzAuOTc2IDMwLjk3NiAwIDAgMCAyNC4xMDY2NjctMTEuMjIxMzMzIDQ4LjY0IDQ4LjY0IDAgMCAwIDkuODEzMzMzLTMzLjA2NjY2NyA1MS41NDEzMzMgNTEuNTQxMzMzIDAgMCAwLTkuMzg2NjY3LTMzLjk2MjY2NyAyOS45NTIgMjkuOTUyIDAgMCAwLTIzLjg5MzMzMy0xMS4wOTMzMzMgMjguNzU3MzMzIDI4Ljc1NzMzMyAwIDAgMC0yMy4wNCAxMC45MjI2Njd6Ii8+PC9zdmc+;fontColor=#FFFFFF;strokeColor=#EFF1F3;strokeWidth=1;fillColor=#E6D7C2;" parent="1" vertex="1">
          <mxGeometry x="64" y="444" width="32" height="32" as="geometry" />
        </mxCell>
        <mxCell id="Jgx5MPd64Z9ybUuF26Cs-14" value="" style="shape=image;verticalLabelPosition=bottom;verticalAlign=top;imageAspect=0;aspect=fixed;image=data:image/svg+xml,PHN2ZyB4bWxuczp4bGluaz0iaHR0cDovL3d3dy53My5vcmcvMTk5OS94bGluayIgeG1sbnM9Imh0dHA6Ly93d3cudzMub3JnLzIwMDAvc3ZnIiBoZWlnaHQ9IjIwMCIgd2lkdGg9IjIwMCIgdmVyc2lvbj0iMS4xIiB2aWV3Qm94PSIwIDAgMTAyNCAxMDI0IiBjbGFzcz0iaWNvbiI+PGRlZnM+PHN0eWxlIHR5cGU9InRleHQvY3NzIj5AZm9udC1mYWNlIHsgZm9udC1mYW1pbHk6IGZlZWRiYWNrLWljb25mb250OyBzcmM6IHVybCgiLy9hdC5hbGljZG4uY29tL3QvZm9udF8xMDMxMTU4X3U2OXc4eWh4ZHUud29mZjI/dD0xNjMwMDMzNzU5OTQ0IikgZm9ybWF0KCJ3b2ZmMiIpLCB1cmwoIi8vYXQuYWxpY2RuLmNvbS90L2ZvbnRfMTAzMTE1OF91Njl3OHloeGR1LndvZmY/dD0xNjMwMDMzNzU5OTQ0IikgZm9ybWF0KCJ3b2ZmIiksIHVybCgiLy9hdC5hbGljZG4uY29tL3QvZm9udF8xMDMxMTU4X3U2OXc4eWh4ZHUudHRmP3Q9MTYzMDAzMzc1OTk0NCIpIGZvcm1hdCgidHJ1ZXR5cGUiKTsgfSYjeGE7PC9zdHlsZT48L2RlZnM+PHBhdGggZmlsbD0iIzRBOTE5QiIgZD0iTTI3Ny4zMzMzMzMgODUzLjMzMzMzM2E5NC4wMzczMzMgOTQuMDM3MzMzIDAgMCAxLTkzLjg2NjY2Ni05My44NjY2NjZWMjY0LjUzMzMzM0E5NC4wMzczMzMgOTQuMDM3MzMzIDAgMCAxIDI3Ny4zMzMzMzMgMTcwLjY2NjY2N2gzODYuOTAxMzM0YzE1Ljc4NjY2Ny0wLjEyOCAzMC45MzMzMzMgNi4wMTYgNDIuMTU0NjY2IDE3LjA2NjY2NmwxMjYuNDY0IDEyNi40NjRhMjUuNiAyNS42IDAgMCAxIDcuNjggMTguNjAyNjY3djQyNi42NjY2NjdhOTQuMDM3MzMzIDk0LjAzNzMzMyAwIDAgMS05My44NjY2NjYgOTMuODY2NjY2aC00NjkuMzMzMzM0eiBtMC02MzEuNDY2NjY2YTQyLjY2NjY2NyA0Mi42NjY2NjcgMCAwIDAtNDIuNjY2NjY2IDQyLjY2NjY2NnY0OTQuOTMzMzM0YTQyLjY2NjY2NyA0Mi42NjY2NjcgMCAwIDAgNDIuNjY2NjY2IDQyLjY2NjY2Nmg0NjkuMzMzMzM0YTQyLjY2NjY2NyA0Mi42NjY2NjcgMCAwIDAgNDIuNjY2NjY2LTQyLjY2NjY2NlYzNDMuMzgxMzMzbC0xMTkuNDY2NjY2LTExOS40NjY2NjZhOC41MzMzMzMgOC41MzMzMzMgMCAwIDAtNS42MzItMi4wNDhIMjc3LjMzMzMzM3ogbTkyLjg0MjY2NyAxNzguNTZoLTM4LjkxMlYzNjQuMzczMzMzaDM4LjkxMnYzNi4wNTMzMzR6IG0tMzguOTEyIDE5Ljk2OGgzOC45MTJ2MTQyLjYzNDY2NmMwLjU5NzMzMyAxMy4zNTQ2NjctMC42NCAyNi43NTItMy42NjkzMzMgMzkuNzY1MzM0YTMyLjQyNjY2NyAzMi40MjY2NjcgMCAwIDEtMTQuMTIyNjY3IDE4LjA5MDY2NmMtOC4xMDY2NjcgNC42MDgtMTcuMzY1MzMzIDYuODI2NjY3LTI2LjcwOTMzMyA2LjQ4NTMzNC00LjE4MTMzMyAwLTguMzYyNjY3LTAuMzg0LTEyLjU0NC0xLjA2NjY2N0ExNjguMjc3MzMzIDE2OC4yNzczMzMgMCAwIDEgMjk4LjY2NjY2NyA2MjMuMjMybDYuODI2NjY2LTMzLjMyMjY2NyA1LjEyIDAuOTM4NjY3YzEuNTM2IDAuMjEzMzMzIDMuMDI5MzMzIDAuMzQxMzMzIDQuNTIyNjY3IDAuMzQxMzMzYTE2LjY0IDE2LjY0IDAgMCAwIDkuODEzMzMzLTIuNjAyNjY2IDEyLjIwMjY2NyAxMi4yMDI2NjcgMCAwIDAgNS4wMzQ2NjctNi4xNDRjMS4xOTQ2NjctNy4xNjggMS42MjEzMzMtMTQuNDIxMzMzIDEuMjgtMjEuNjMyVjQyMC4zOTQ2Njd6IG04NS42NzQ2NjcgMjAzLjIyMTMzM1Y0MjAuMzk0NjY3aDM2LjMwOTMzM3YyMS41ODkzMzNhNTQuNCA1NC40IDAgMCAxIDQ1Ljg2NjY2Ny0yNC45MTczMzNjMTYuODEwNjY3LTAuMTcwNjY3IDMyLjc2OCA3LjI1MzMzMyA0My41MiAyMC4wOTYgMTIuOCAxNS43ODY2NjcgMTkuMTU3MzMzIDM1Ljc1NDY2NyAxNy45MiA1Ni4wMjEzMzMgMS4yOCAyMC42NTA2NjctNS4xMiA0MS4wODgtMTguMDQ4IDU3LjMwMTMzM2E1Ni4yMzQ2NjcgNTYuMjM0NjY3IDAgMCAxLTQzLjY0OCAyMC40OCA1MC4xMzMzMzMgNTAuMTMzMzMzIDAgMCAxLTIyLjEwMTMzNC00Ljg2NGMtNy44OTMzMzMtNC4yNjY2NjctMTQuOTMzMzMzLTkuODk4NjY3LTIwLjkwNjY2Ni0xNi42NHY3NC4xNTQ2NjdoLTM4LjkxMnogbTQ3Ljk1NzMzMy0xNjQuNzM2YTQ5LjA2NjY2NyA0OS4wNjY2NjcgMCAwIDAtOS40NzIgMzIuNTk3MzMzYy0xLjAyNCAxMi45NzA2NjcgMi40MzIgMjUuOTQxMzMzIDkuODEzMzMzIDM2LjY5MzMzNGEzMC4wOCAzMC4wOCAwIDAgMCAyNC4wMjEzMzQgMTEuODE4NjY2IDI4LjAzMiAyOC4wMzIgMCAwIDAgMjIuNjEzMzMzLTEwLjgzNzMzM2M2LjkxMi0xMC41Mzg2NjcgMTAuMDY5MzMzLTIzLjEyNTMzMyA4Ljk2LTM1LjcxMmE1My4yNDggNTMuMjQ4IDAgMCAwLTkuMjU4NjY3LTM0LjM0NjY2NyAyOC43MTQ2NjcgMjguNzE0NjY3IDAgMCAwLTIzLjA0LTExLjI2NCAyOS44NjY2NjcgMjkuODY2NjY3IDAgMCAwLTIzLjYzNzMzMyAxMS4wNTA2Njd6IG0xMjkuOTIgMTIzLjIyMTMzM2gtMC4wNDI2NjdsMC4xMjgtNC43MzYgNDQuNTAxMzM0IDUuMjkwNjY3YTE1LjUzMDY2NyAxNS41MzA2NjcgMCAwIDAgNS4xMiAxMC43OTQ2NjcgMjkuNjUzMzMzIDI5LjY1MzMzMyAwIDAgMCAxNy40OTMzMzMgNC4xMzg2NjZjNy44OTMzMzMgMC40NjkzMzMgMTUuNzg2NjY3LTEuMTA5MzMzIDIyLjg2OTMzMy00LjYwOGExOC43NzMzMzMgMTguNzczMzMzIDAgMCAwIDcuNzIyNjY3LTkuODEzMzMzIDU4Ljg4IDU4Ljg4IDAgMCAwIDEuODM0NjY3LTE3Ljkydi0yMS41MDRhNTIuODY0IDUyLjg2NCAwIDAgMS00NC4wNzQ2NjcgMjMuODkzMzMzIDU0LjQgNTQuNCAwIDAgMS00Ny4wMTg2NjctMjUuMDQ1MzMzIDg1LjYzMiA4NS42MzIgMCAwIDEtMTMuNTY4LTQ5LjQwOCA4MS4xOTQ2NjcgODEuMTk0NjY3IDAgMCAxIDE3Ljc5Mi01Ni41NzYgNTcuNDcyIDU3LjQ3MiAwIDAgMSA0NC4yODgtMTkuNTQxMzMzYzE4LjA5MDY2Ny0wLjA4NTMzMyAzNC45ODY2NjcgOC45NiA0NS4wNTYgMjMuOTc4NjY2di0yMC42NTA2NjZoMzYuNTIyNjY3djEzMi4wOTZjMC41MTIgMTMuMTQxMzMzLTAuOTM4NjY3IDI2LjI0LTQuMjY2NjY3IDM4Ljk1NDY2Ni0yLjMwNCA3LjYzNzMzMy02LjQ0MjY2NyAxNC41OTItMTIuMDc0NjY2IDIwLjIyNC01Ljk3MzMzMyA1LjMzMzMzMy0xMy4wNTYgOS4zMDEzMzMtMjAuNzM2IDExLjU2MjY2N2ExMTAuOTMzMzMzIDExMC45MzMzMzMgMCAwIDEtMzIuODEwNjY3IDQuMTM4NjY3Yy0yNC45MTczMzMgMC00Mi42NjY2NjctNC4yNjY2NjctNTMuMDc3MzMzLTEyLjg4NTMzNGE0MC4xNDkzMzMgNDAuMTQ5MzMzIDAgMCAxLTE1LjY1ODY2Ny0zMi40MjY2NjZ6IG00My45ODkzMzMtMTI0LjMzMDY2NmE1MS4wMjkzMzMgNTEuMDI5MzMzIDAgMCAwLTkuMDAyNjY2IDMzLjE5NDY2NmMtMS4wMjQgMTIuMTE3MzMzIDIuMTc2IDI0LjIzNDY2NyA5LjA0NTMzMyAzNC4zMDRhMjguMTYgMjguMTYgMCAwIDAgMjIuNCAxMC45MjI2NjcgMzAuOTc2IDMwLjk3NiAwIDAgMCAyNC4xMDY2NjctMTEuMjIxMzMzIDQ4LjY0IDQ4LjY0IDAgMCAwIDkuODEzMzMzLTMzLjA2NjY2NyA1MS41NDEzMzMgNTEuNTQxMzMzIDAgMCAwLTkuMzg2NjY3LTMzLjk2MjY2NyAyOS45NTIgMjkuOTUyIDAgMCAwLTIzLjg5MzMzMy0xMS4wOTMzMzMgMjguNzU3MzMzIDI4Ljc1NzMzMyAwIDAgMC0yMy4wNCAxMC45MjI2Njd6Ii8+PC9zdmc+;fontColor=#FFFFFF;strokeColor=#EFF1F3;strokeWidth=1;fillColor=#E6D7C2;" parent="1" vertex="1">
          <mxGeometry x="42" y="444" width="32" height="32" as="geometry" />
        </mxCell>
        <mxCell id="Jgx5MPd64Z9ybUuF26Cs-15" value="" style="shape=image;verticalLabelPosition=bottom;verticalAlign=top;imageAspect=0;aspect=fixed;image=data:image/svg+xml,PHN2ZyB4bWxuczp4bGluaz0iaHR0cDovL3d3dy53My5vcmcvMTk5OS94bGluayIgeG1sbnM9Imh0dHA6Ly93d3cudzMub3JnLzIwMDAvc3ZnIiBoZWlnaHQ9IjIwMCIgd2lkdGg9IjIwMCIgdmVyc2lvbj0iMS4xIiB2aWV3Qm94PSIwIDAgMTAyNCAxMDI0IiBjbGFzcz0iaWNvbiI+PGRlZnM+PHN0eWxlIHR5cGU9InRleHQvY3NzIj5AZm9udC1mYWNlIHsgZm9udC1mYW1pbHk6IGZlZWRiYWNrLWljb25mb250OyBzcmM6IHVybCgiLy9hdC5hbGljZG4uY29tL3QvZm9udF8xMDMxMTU4X3U2OXc4eWh4ZHUud29mZjI/dD0xNjMwMDMzNzU5OTQ0IikgZm9ybWF0KCJ3b2ZmMiIpLCB1cmwoIi8vYXQuYWxpY2RuLmNvbS90L2ZvbnRfMTAzMTE1OF91Njl3OHloeGR1LndvZmY/dD0xNjMwMDMzNzU5OTQ0IikgZm9ybWF0KCJ3b2ZmIiksIHVybCgiLy9hdC5hbGljZG4uY29tL3QvZm9udF8xMDMxMTU4X3U2OXc4eWh4ZHUudHRmP3Q9MTYzMDAzMzc1OTk0NCIpIGZvcm1hdCgidHJ1ZXR5cGUiKTsgfSYjeGE7PC9zdHlsZT48L2RlZnM+PHBhdGggZmlsbD0iIzRBOTE5QiIgZD0iTTI3Ny4zMzMzMzMgODUzLjMzMzMzM2E5NC4wMzczMzMgOTQuMDM3MzMzIDAgMCAxLTkzLjg2NjY2Ni05My44NjY2NjZWMjY0LjUzMzMzM0E5NC4wMzczMzMgOTQuMDM3MzMzIDAgMCAxIDI3Ny4zMzMzMzMgMTcwLjY2NjY2N2gzODYuOTAxMzM0YzE1Ljc4NjY2Ny0wLjEyOCAzMC45MzMzMzMgNi4wMTYgNDIuMTU0NjY2IDE3LjA2NjY2NmwxMjYuNDY0IDEyNi40NjRhMjUuNiAyNS42IDAgMCAxIDcuNjggMTguNjAyNjY3djQyNi42NjY2NjdhOTQuMDM3MzMzIDk0LjAzNzMzMyAwIDAgMS05My44NjY2NjYgOTMuODY2NjY2aC00NjkuMzMzMzM0eiBtMC02MzEuNDY2NjY2YTQyLjY2NjY2NyA0Mi42NjY2NjcgMCAwIDAtNDIuNjY2NjY2IDQyLjY2NjY2NnY0OTQuOTMzMzM0YTQyLjY2NjY2NyA0Mi42NjY2NjcgMCAwIDAgNDIuNjY2NjY2IDQyLjY2NjY2Nmg0NjkuMzMzMzM0YTQyLjY2NjY2NyA0Mi42NjY2NjcgMCAwIDAgNDIuNjY2NjY2LTQyLjY2NjY2NlYzNDMuMzgxMzMzbC0xMTkuNDY2NjY2LTExOS40NjY2NjZhOC41MzMzMzMgOC41MzMzMzMgMCAwIDAtNS42MzItMi4wNDhIMjc3LjMzMzMzM3ogbTkyLjg0MjY2NyAxNzguNTZoLTM4LjkxMlYzNjQuMzczMzMzaDM4LjkxMnYzNi4wNTMzMzR6IG0tMzguOTEyIDE5Ljk2OGgzOC45MTJ2MTQyLjYzNDY2NmMwLjU5NzMzMyAxMy4zNTQ2NjctMC42NCAyNi43NTItMy42NjkzMzMgMzkuNzY1MzM0YTMyLjQyNjY2NyAzMi40MjY2NjcgMCAwIDEtMTQuMTIyNjY3IDE4LjA5MDY2NmMtOC4xMDY2NjcgNC42MDgtMTcuMzY1MzMzIDYuODI2NjY3LTI2LjcwOTMzMyA2LjQ4NTMzNC00LjE4MTMzMyAwLTguMzYyNjY3LTAuMzg0LTEyLjU0NC0xLjA2NjY2N0ExNjguMjc3MzMzIDE2OC4yNzczMzMgMCAwIDEgMjk4LjY2NjY2NyA2MjMuMjMybDYuODI2NjY2LTMzLjMyMjY2NyA1LjEyIDAuOTM4NjY3YzEuNTM2IDAuMjEzMzMzIDMuMDI5MzMzIDAuMzQxMzMzIDQuNTIyNjY3IDAuMzQxMzMzYTE2LjY0IDE2LjY0IDAgMCAwIDkuODEzMzMzLTIuNjAyNjY2IDEyLjIwMjY2NyAxMi4yMDI2NjcgMCAwIDAgNS4wMzQ2NjctNi4xNDRjMS4xOTQ2NjctNy4xNjggMS42MjEzMzMtMTQuNDIxMzMzIDEuMjgtMjEuNjMyVjQyMC4zOTQ2Njd6IG04NS42NzQ2NjcgMjAzLjIyMTMzM1Y0MjAuMzk0NjY3aDM2LjMwOTMzM3YyMS41ODkzMzNhNTQuNCA1NC40IDAgMCAxIDQ1Ljg2NjY2Ny0yNC45MTczMzNjMTYuODEwNjY3LTAuMTcwNjY3IDMyLjc2OCA3LjI1MzMzMyA0My41MiAyMC4wOTYgMTIuOCAxNS43ODY2NjcgMTkuMTU3MzMzIDM1Ljc1NDY2NyAxNy45MiA1Ni4wMjEzMzMgMS4yOCAyMC42NTA2NjctNS4xMiA0MS4wODgtMTguMDQ4IDU3LjMwMTMzM2E1Ni4yMzQ2NjcgNTYuMjM0NjY3IDAgMCAxLTQzLjY0OCAyMC40OCA1MC4xMzMzMzMgNTAuMTMzMzMzIDAgMCAxLTIyLjEwMTMzNC00Ljg2NGMtNy44OTMzMzMtNC4yNjY2NjctMTQuOTMzMzMzLTkuODk4NjY3LTIwLjkwNjY2Ni0xNi42NHY3NC4xNTQ2NjdoLTM4LjkxMnogbTQ3Ljk1NzMzMy0xNjQuNzM2YTQ5LjA2NjY2NyA0OS4wNjY2NjcgMCAwIDAtOS40NzIgMzIuNTk3MzMzYy0xLjAyNCAxMi45NzA2NjcgMi40MzIgMjUuOTQxMzMzIDkuODEzMzMzIDM2LjY5MzMzNGEzMC4wOCAzMC4wOCAwIDAgMCAyNC4wMjEzMzQgMTEuODE4NjY2IDI4LjAzMiAyOC4wMzIgMCAwIDAgMjIuNjEzMzMzLTEwLjgzNzMzM2M2LjkxMi0xMC41Mzg2NjcgMTAuMDY5MzMzLTIzLjEyNTMzMyA4Ljk2LTM1LjcxMmE1My4yNDggNTMuMjQ4IDAgMCAwLTkuMjU4NjY3LTM0LjM0NjY2NyAyOC43MTQ2NjcgMjguNzE0NjY3IDAgMCAwLTIzLjA0LTExLjI2NCAyOS44NjY2NjcgMjkuODY2NjY3IDAgMCAwLTIzLjYzNzMzMyAxMS4wNTA2Njd6IG0xMjkuOTIgMTIzLjIyMTMzM2gtMC4wNDI2NjdsMC4xMjgtNC43MzYgNDQuNTAxMzM0IDUuMjkwNjY3YTE1LjUzMDY2NyAxNS41MzA2NjcgMCAwIDAgNS4xMiAxMC43OTQ2NjcgMjkuNjUzMzMzIDI5LjY1MzMzMyAwIDAgMCAxNy40OTMzMzMgNC4xMzg2NjZjNy44OTMzMzMgMC40NjkzMzMgMTUuNzg2NjY3LTEuMTA5MzMzIDIyLjg2OTMzMy00LjYwOGExOC43NzMzMzMgMTguNzczMzMzIDAgMCAwIDcuNzIyNjY3LTkuODEzMzMzIDU4Ljg4IDU4Ljg4IDAgMCAwIDEuODM0NjY3LTE3Ljkydi0yMS41MDRhNTIuODY0IDUyLjg2NCAwIDAgMS00NC4wNzQ2NjcgMjMuODkzMzMzIDU0LjQgNTQuNCAwIDAgMS00Ny4wMTg2NjctMjUuMDQ1MzMzIDg1LjYzMiA4NS42MzIgMCAwIDEtMTMuNTY4LTQ5LjQwOCA4MS4xOTQ2NjcgODEuMTk0NjY3IDAgMCAxIDE3Ljc5Mi01Ni41NzYgNTcuNDcyIDU3LjQ3MiAwIDAgMSA0NC4yODgtMTkuNTQxMzMzYzE4LjA5MDY2Ny0wLjA4NTMzMyAzNC45ODY2NjcgOC45NiA0NS4wNTYgMjMuOTc4NjY2di0yMC42NTA2NjZoMzYuNTIyNjY3djEzMi4wOTZjMC41MTIgMTMuMTQxMzMzLTAuOTM4NjY3IDI2LjI0LTQuMjY2NjY3IDM4Ljk1NDY2Ni0yLjMwNCA3LjYzNzMzMy02LjQ0MjY2NyAxNC41OTItMTIuMDc0NjY2IDIwLjIyNC01Ljk3MzMzMyA1LjMzMzMzMy0xMy4wNTYgOS4zMDEzMzMtMjAuNzM2IDExLjU2MjY2N2ExMTAuOTMzMzMzIDExMC45MzMzMzMgMCAwIDEtMzIuODEwNjY3IDQuMTM4NjY3Yy0yNC45MTczMzMgMC00Mi42NjY2NjctNC4yNjY2NjctNTMuMDc3MzMzLTEyLjg4NTMzNGE0MC4xNDkzMzMgNDAuMTQ5MzMzIDAgMCAxLTE1LjY1ODY2Ny0zMi40MjY2NjZ6IG00My45ODkzMzMtMTI0LjMzMDY2NmE1MS4wMjkzMzMgNTEuMDI5MzMzIDAgMCAwLTkuMDAyNjY2IDMzLjE5NDY2NmMtMS4wMjQgMTIuMTE3MzMzIDIuMTc2IDI0LjIzNDY2NyA5LjA0NTMzMyAzNC4zMDRhMjguMTYgMjguMTYgMCAwIDAgMjIuNCAxMC45MjI2NjcgMzAuOTc2IDMwLjk3NiAwIDAgMCAyNC4xMDY2NjctMTEuMjIxMzMzIDQ4LjY0IDQ4LjY0IDAgMCAwIDkuODEzMzMzLTMzLjA2NjY2NyA1MS41NDEzMzMgNTEuNTQxMzMzIDAgMCAwLTkuMzg2NjY3LTMzLjk2MjY2NyAyOS45NTIgMjkuOTUyIDAgMCAwLTIzLjg5MzMzMy0xMS4wOTMzMzMgMjguNzU3MzMzIDI4Ljc1NzMzMyAwIDAgMC0yMy4wNCAxMC45MjI2Njd6Ii8+PC9zdmc+;fontColor=#FFFFFF;strokeColor=#EFF1F3;strokeWidth=1;fillColor=#E6D7C2;" parent="1" vertex="1">
          <mxGeometry x="20" y="444" width="32" height="32" as="geometry" />
        </mxCell>
        <mxCell id="Jgx5MPd64Z9ybUuF26Cs-20" value="" style="shape=image;verticalLabelPosition=bottom;verticalAlign=top;imageAspect=0;aspect=fixed;image=data:image/svg+xml,PHN2ZyB4bWxuczp4bGluaz0iaHR0cDovL3d3dy53My5vcmcvMTk5OS94bGluayIgeG1sbnM9Imh0dHA6Ly93d3cudzMub3JnLzIwMDAvc3ZnIiBoZWlnaHQ9IjIwMCIgd2lkdGg9IjIwMCIgdmVyc2lvbj0iMS4xIiB2aWV3Qm94PSIwIDAgMTAyNCAxMDI0IiBjbGFzcz0iaWNvbiI+PGRlZnM+PHN0eWxlIHR5cGU9InRleHQvY3NzIj5AZm9udC1mYWNlIHsgZm9udC1mYW1pbHk6IGZlZWRiYWNrLWljb25mb250OyBzcmM6IHVybCgiLy9hdC5hbGljZG4uY29tL3QvZm9udF8xMDMxMTU4X3U2OXc4eWh4ZHUud29mZjI/dD0xNjMwMDMzNzU5OTQ0IikgZm9ybWF0KCJ3b2ZmMiIpLCB1cmwoIi8vYXQuYWxpY2RuLmNvbS90L2ZvbnRfMTAzMTE1OF91Njl3OHloeGR1LndvZmY/dD0xNjMwMDMzNzU5OTQ0IikgZm9ybWF0KCJ3b2ZmIiksIHVybCgiLy9hdC5hbGljZG4uY29tL3QvZm9udF8xMDMxMTU4X3U2OXc4eWh4ZHUudHRmP3Q9MTYzMDAzMzc1OTk0NCIpIGZvcm1hdCgidHJ1ZXR5cGUiKTsgfSYjeGE7PC9zdHlsZT48L2RlZnM+PHBhdGggZmlsbD0iIzRBOTE5QiIgZD0iTTI3Ny4zMzMzMzMgODUzLjMzMzMzM2E5NC4wMzczMzMgOTQuMDM3MzMzIDAgMCAxLTkzLjg2NjY2Ni05My44NjY2NjZWMjY0LjUzMzMzM0E5NC4wMzczMzMgOTQuMDM3MzMzIDAgMCAxIDI3Ny4zMzMzMzMgMTcwLjY2NjY2N2gzODYuOTAxMzM0YzE1Ljc4NjY2Ny0wLjEyOCAzMC45MzMzMzMgNi4wMTYgNDIuMTU0NjY2IDE3LjA2NjY2NmwxMjYuNDY0IDEyNi40NjRhMjUuNiAyNS42IDAgMCAxIDcuNjggMTguNjAyNjY3djQyNi42NjY2NjdhOTQuMDM3MzMzIDk0LjAzNzMzMyAwIDAgMS05My44NjY2NjYgOTMuODY2NjY2aC00NjkuMzMzMzM0eiBtMC02MzEuNDY2NjY2YTQyLjY2NjY2NyA0Mi42NjY2NjcgMCAwIDAtNDIuNjY2NjY2IDQyLjY2NjY2NnY0OTQuOTMzMzM0YTQyLjY2NjY2NyA0Mi42NjY2NjcgMCAwIDAgNDIuNjY2NjY2IDQyLjY2NjY2Nmg0NjkuMzMzMzM0YTQyLjY2NjY2NyA0Mi42NjY2NjcgMCAwIDAgNDIuNjY2NjY2LTQyLjY2NjY2NlYzNDMuMzgxMzMzbC0xMTkuNDY2NjY2LTExOS40NjY2NjZhOC41MzMzMzMgOC41MzMzMzMgMCAwIDAtNS42MzItMi4wNDhIMjc3LjMzMzMzM3ogbTkyLjg0MjY2NyAxNzguNTZoLTM4LjkxMlYzNjQuMzczMzMzaDM4LjkxMnYzNi4wNTMzMzR6IG0tMzguOTEyIDE5Ljk2OGgzOC45MTJ2MTQyLjYzNDY2NmMwLjU5NzMzMyAxMy4zNTQ2NjctMC42NCAyNi43NTItMy42NjkzMzMgMzkuNzY1MzM0YTMyLjQyNjY2NyAzMi40MjY2NjcgMCAwIDEtMTQuMTIyNjY3IDE4LjA5MDY2NmMtOC4xMDY2NjcgNC42MDgtMTcuMzY1MzMzIDYuODI2NjY3LTI2LjcwOTMzMyA2LjQ4NTMzNC00LjE4MTMzMyAwLTguMzYyNjY3LTAuMzg0LTEyLjU0NC0xLjA2NjY2N0ExNjguMjc3MzMzIDE2OC4yNzczMzMgMCAwIDEgMjk4LjY2NjY2NyA2MjMuMjMybDYuODI2NjY2LTMzLjMyMjY2NyA1LjEyIDAuOTM4NjY3YzEuNTM2IDAuMjEzMzMzIDMuMDI5MzMzIDAuMzQxMzMzIDQuNTIyNjY3IDAuMzQxMzMzYTE2LjY0IDE2LjY0IDAgMCAwIDkuODEzMzMzLTIuNjAyNjY2IDEyLjIwMjY2NyAxMi4yMDI2NjcgMCAwIDAgNS4wMzQ2NjctNi4xNDRjMS4xOTQ2NjctNy4xNjggMS42MjEzMzMtMTQuNDIxMzMzIDEuMjgtMjEuNjMyVjQyMC4zOTQ2Njd6IG04NS42NzQ2NjcgMjAzLjIyMTMzM1Y0MjAuMzk0NjY3aDM2LjMwOTMzM3YyMS41ODkzMzNhNTQuNCA1NC40IDAgMCAxIDQ1Ljg2NjY2Ny0yNC45MTczMzNjMTYuODEwNjY3LTAuMTcwNjY3IDMyLjc2OCA3LjI1MzMzMyA0My41MiAyMC4wOTYgMTIuOCAxNS43ODY2NjcgMTkuMTU3MzMzIDM1Ljc1NDY2NyAxNy45MiA1Ni4wMjEzMzMgMS4yOCAyMC42NTA2NjctNS4xMiA0MS4wODgtMTguMDQ4IDU3LjMwMTMzM2E1Ni4yMzQ2NjcgNTYuMjM0NjY3IDAgMCAxLTQzLjY0OCAyMC40OCA1MC4xMzMzMzMgNTAuMTMzMzMzIDAgMCAxLTIyLjEwMTMzNC00Ljg2NGMtNy44OTMzMzMtNC4yNjY2NjctMTQuOTMzMzMzLTkuODk4NjY3LTIwLjkwNjY2Ni0xNi42NHY3NC4xNTQ2NjdoLTM4LjkxMnogbTQ3Ljk1NzMzMy0xNjQuNzM2YTQ5LjA2NjY2NyA0OS4wNjY2NjcgMCAwIDAtOS40NzIgMzIuNTk3MzMzYy0xLjAyNCAxMi45NzA2NjcgMi40MzIgMjUuOTQxMzMzIDkuODEzMzMzIDM2LjY5MzMzNGEzMC4wOCAzMC4wOCAwIDAgMCAyNC4wMjEzMzQgMTEuODE4NjY2IDI4LjAzMiAyOC4wMzIgMCAwIDAgMjIuNjEzMzMzLTEwLjgzNzMzM2M2LjkxMi0xMC41Mzg2NjcgMTAuMDY5MzMzLTIzLjEyNTMzMyA4Ljk2LTM1LjcxMmE1My4yNDggNTMuMjQ4IDAgMCAwLTkuMjU4NjY3LTM0LjM0NjY2NyAyOC43MTQ2NjcgMjguNzE0NjY3IDAgMCAwLTIzLjA0LTExLjI2NCAyOS44NjY2NjcgMjkuODY2NjY3IDAgMCAwLTIzLjYzNzMzMyAxMS4wNTA2Njd6IG0xMjkuOTIgMTIzLjIyMTMzM2gtMC4wNDI2NjdsMC4xMjgtNC43MzYgNDQuNTAxMzM0IDUuMjkwNjY3YTE1LjUzMDY2NyAxNS41MzA2NjcgMCAwIDAgNS4xMiAxMC43OTQ2NjcgMjkuNjUzMzMzIDI5LjY1MzMzMyAwIDAgMCAxNy40OTMzMzMgNC4xMzg2NjZjNy44OTMzMzMgMC40NjkzMzMgMTUuNzg2NjY3LTEuMTA5MzMzIDIyLjg2OTMzMy00LjYwOGExOC43NzMzMzMgMTguNzczMzMzIDAgMCAwIDcuNzIyNjY3LTkuODEzMzMzIDU4Ljg4IDU4Ljg4IDAgMCAwIDEuODM0NjY3LTE3Ljkydi0yMS41MDRhNTIuODY0IDUyLjg2NCAwIDAgMS00NC4wNzQ2NjcgMjMuODkzMzMzIDU0LjQgNTQuNCAwIDAgMS00Ny4wMTg2NjctMjUuMDQ1MzMzIDg1LjYzMiA4NS42MzIgMCAwIDEtMTMuNTY4LTQ5LjQwOCA4MS4xOTQ2NjcgODEuMTk0NjY3IDAgMCAxIDE3Ljc5Mi01Ni41NzYgNTcuNDcyIDU3LjQ3MiAwIDAgMSA0NC4yODgtMTkuNTQxMzMzYzE4LjA5MDY2Ny0wLjA4NTMzMyAzNC45ODY2NjcgOC45NiA0NS4wNTYgMjMuOTc4NjY2di0yMC42NTA2NjZoMzYuNTIyNjY3djEzMi4wOTZjMC41MTIgMTMuMTQxMzMzLTAuOTM4NjY3IDI2LjI0LTQuMjY2NjY3IDM4Ljk1NDY2Ni0yLjMwNCA3LjYzNzMzMy02LjQ0MjY2NyAxNC41OTItMTIuMDc0NjY2IDIwLjIyNC01Ljk3MzMzMyA1LjMzMzMzMy0xMy4wNTYgOS4zMDEzMzMtMjAuNzM2IDExLjU2MjY2N2ExMTAuOTMzMzMzIDExMC45MzMzMzMgMCAwIDEtMzIuODEwNjY3IDQuMTM4NjY3Yy0yNC45MTczMzMgMC00Mi42NjY2NjctNC4yNjY2NjctNTMuMDc3MzMzLTEyLjg4NTMzNGE0MC4xNDkzMzMgNDAuMTQ5MzMzIDAgMCAxLTE1LjY1ODY2Ny0zMi40MjY2NjZ6IG00My45ODkzMzMtMTI0LjMzMDY2NmE1MS4wMjkzMzMgNTEuMDI5MzMzIDAgMCAwLTkuMDAyNjY2IDMzLjE5NDY2NmMtMS4wMjQgMTIuMTE3MzMzIDIuMTc2IDI0LjIzNDY2NyA5LjA0NTMzMyAzNC4zMDRhMjguMTYgMjguMTYgMCAwIDAgMjIuNCAxMC45MjI2NjcgMzAuOTc2IDMwLjk3NiAwIDAgMCAyNC4xMDY2NjctMTEuMjIxMzMzIDQ4LjY0IDQ4LjY0IDAgMCAwIDkuODEzMzMzLTMzLjA2NjY2NyA1MS41NDEzMzMgNTEuNTQxMzMzIDAgMCAwLTkuMzg2NjY3LTMzLjk2MjY2NyAyOS45NTIgMjkuOTUyIDAgMCAwLTIzLjg5MzMzMy0xMS4wOTMzMzMgMjguNzU3MzMzIDI4Ljc1NzMzMyAwIDAgMC0yMy4wNCAxMC45MjI2Njd6Ii8+PC9zdmc+;fontColor=#FFFFFF;strokeColor=#EFF1F3;strokeWidth=1;fillColor=#E6D7C2;" parent="1" vertex="1">
          <mxGeometry x="209.5" y="406" width="32" height="32" as="geometry" />
        </mxCell>
        <mxCell id="Jgx5MPd64Z9ybUuF26Cs-21" value="" style="shape=image;verticalLabelPosition=bottom;verticalAlign=top;imageAspect=0;aspect=fixed;image=data:image/svg+xml,PHN2ZyB4bWxuczp4bGluaz0iaHR0cDovL3d3dy53My5vcmcvMTk5OS94bGluayIgeG1sbnM9Imh0dHA6Ly93d3cudzMub3JnLzIwMDAvc3ZnIiBoZWlnaHQ9IjIwMCIgd2lkdGg9IjIwMCIgdmVyc2lvbj0iMS4xIiB2aWV3Qm94PSIwIDAgMTAyNCAxMDI0IiBjbGFzcz0iaWNvbiI+PGRlZnM+PHN0eWxlIHR5cGU9InRleHQvY3NzIj5AZm9udC1mYWNlIHsgZm9udC1mYW1pbHk6IGZlZWRiYWNrLWljb25mb250OyBzcmM6IHVybCgiLy9hdC5hbGljZG4uY29tL3QvZm9udF8xMDMxMTU4X3U2OXc4eWh4ZHUud29mZjI/dD0xNjMwMDMzNzU5OTQ0IikgZm9ybWF0KCJ3b2ZmMiIpLCB1cmwoIi8vYXQuYWxpY2RuLmNvbS90L2ZvbnRfMTAzMTE1OF91Njl3OHloeGR1LndvZmY/dD0xNjMwMDMzNzU5OTQ0IikgZm9ybWF0KCJ3b2ZmIiksIHVybCgiLy9hdC5hbGljZG4uY29tL3QvZm9udF8xMDMxMTU4X3U2OXc4eWh4ZHUudHRmP3Q9MTYzMDAzMzc1OTk0NCIpIGZvcm1hdCgidHJ1ZXR5cGUiKTsgfSYjeGE7PC9zdHlsZT48L2RlZnM+PHBhdGggZmlsbD0iIzRBOTE5QiIgZD0iTTI3Ny4zMzMzMzMgODUzLjMzMzMzM2E5NC4wMzczMzMgOTQuMDM3MzMzIDAgMCAxLTkzLjg2NjY2Ni05My44NjY2NjZWMjY0LjUzMzMzM0E5NC4wMzczMzMgOTQuMDM3MzMzIDAgMCAxIDI3Ny4zMzMzMzMgMTcwLjY2NjY2N2gzODYuOTAxMzM0YzE1Ljc4NjY2Ny0wLjEyOCAzMC45MzMzMzMgNi4wMTYgNDIuMTU0NjY2IDE3LjA2NjY2NmwxMjYuNDY0IDEyNi40NjRhMjUuNiAyNS42IDAgMCAxIDcuNjggMTguNjAyNjY3djQyNi42NjY2NjdhOTQuMDM3MzMzIDk0LjAzNzMzMyAwIDAgMS05My44NjY2NjYgOTMuODY2NjY2aC00NjkuMzMzMzM0eiBtMC02MzEuNDY2NjY2YTQyLjY2NjY2NyA0Mi42NjY2NjcgMCAwIDAtNDIuNjY2NjY2IDQyLjY2NjY2NnY0OTQuOTMzMzM0YTQyLjY2NjY2NyA0Mi42NjY2NjcgMCAwIDAgNDIuNjY2NjY2IDQyLjY2NjY2Nmg0NjkuMzMzMzM0YTQyLjY2NjY2NyA0Mi42NjY2NjcgMCAwIDAgNDIuNjY2NjY2LTQyLjY2NjY2NlYzNDMuMzgxMzMzbC0xMTkuNDY2NjY2LTExOS40NjY2NjZhOC41MzMzMzMgOC41MzMzMzMgMCAwIDAtNS42MzItMi4wNDhIMjc3LjMzMzMzM3ogbTkyLjg0MjY2NyAxNzguNTZoLTM4LjkxMlYzNjQuMzczMzMzaDM4LjkxMnYzNi4wNTMzMzR6IG0tMzguOTEyIDE5Ljk2OGgzOC45MTJ2MTQyLjYzNDY2NmMwLjU5NzMzMyAxMy4zNTQ2NjctMC42NCAyNi43NTItMy42NjkzMzMgMzkuNzY1MzM0YTMyLjQyNjY2NyAzMi40MjY2NjcgMCAwIDEtMTQuMTIyNjY3IDE4LjA5MDY2NmMtOC4xMDY2NjcgNC42MDgtMTcuMzY1MzMzIDYuODI2NjY3LTI2LjcwOTMzMyA2LjQ4NTMzNC00LjE4MTMzMyAwLTguMzYyNjY3LTAuMzg0LTEyLjU0NC0xLjA2NjY2N0ExNjguMjc3MzMzIDE2OC4yNzczMzMgMCAwIDEgMjk4LjY2NjY2NyA2MjMuMjMybDYuODI2NjY2LTMzLjMyMjY2NyA1LjEyIDAuOTM4NjY3YzEuNTM2IDAuMjEzMzMzIDMuMDI5MzMzIDAuMzQxMzMzIDQuNTIyNjY3IDAuMzQxMzMzYTE2LjY0IDE2LjY0IDAgMCAwIDkuODEzMzMzLTIuNjAyNjY2IDEyLjIwMjY2NyAxMi4yMDI2NjcgMCAwIDAgNS4wMzQ2NjctNi4xNDRjMS4xOTQ2NjctNy4xNjggMS42MjEzMzMtMTQuNDIxMzMzIDEuMjgtMjEuNjMyVjQyMC4zOTQ2Njd6IG04NS42NzQ2NjcgMjAzLjIyMTMzM1Y0MjAuMzk0NjY3aDM2LjMwOTMzM3YyMS41ODkzMzNhNTQuNCA1NC40IDAgMCAxIDQ1Ljg2NjY2Ny0yNC45MTczMzNjMTYuODEwNjY3LTAuMTcwNjY3IDMyLjc2OCA3LjI1MzMzMyA0My41MiAyMC4wOTYgMTIuOCAxNS43ODY2NjcgMTkuMTU3MzMzIDM1Ljc1NDY2NyAxNy45MiA1Ni4wMjEzMzMgMS4yOCAyMC42NTA2NjctNS4xMiA0MS4wODgtMTguMDQ4IDU3LjMwMTMzM2E1Ni4yMzQ2NjcgNTYuMjM0NjY3IDAgMCAxLTQzLjY0OCAyMC40OCA1MC4xMzMzMzMgNTAuMTMzMzMzIDAgMCAxLTIyLjEwMTMzNC00Ljg2NGMtNy44OTMzMzMtNC4yNjY2NjctMTQuOTMzMzMzLTkuODk4NjY3LTIwLjkwNjY2Ni0xNi42NHY3NC4xNTQ2NjdoLTM4LjkxMnogbTQ3Ljk1NzMzMy0xNjQuNzM2YTQ5LjA2NjY2NyA0OS4wNjY2NjcgMCAwIDAtOS40NzIgMzIuNTk3MzMzYy0xLjAyNCAxMi45NzA2NjcgMi40MzIgMjUuOTQxMzMzIDkuODEzMzMzIDM2LjY5MzMzNGEzMC4wOCAzMC4wOCAwIDAgMCAyNC4wMjEzMzQgMTEuODE4NjY2IDI4LjAzMiAyOC4wMzIgMCAwIDAgMjIuNjEzMzMzLTEwLjgzNzMzM2M2LjkxMi0xMC41Mzg2NjcgMTAuMDY5MzMzLTIzLjEyNTMzMyA4Ljk2LTM1LjcxMmE1My4yNDggNTMuMjQ4IDAgMCAwLTkuMjU4NjY3LTM0LjM0NjY2NyAyOC43MTQ2NjcgMjguNzE0NjY3IDAgMCAwLTIzLjA0LTExLjI2NCAyOS44NjY2NjcgMjkuODY2NjY3IDAgMCAwLTIzLjYzNzMzMyAxMS4wNTA2Njd6IG0xMjkuOTIgMTIzLjIyMTMzM2gtMC4wNDI2NjdsMC4xMjgtNC43MzYgNDQuNTAxMzM0IDUuMjkwNjY3YTE1LjUzMDY2NyAxNS41MzA2NjcgMCAwIDAgNS4xMiAxMC43OTQ2NjcgMjkuNjUzMzMzIDI5LjY1MzMzMyAwIDAgMCAxNy40OTMzMzMgNC4xMzg2NjZjNy44OTMzMzMgMC40NjkzMzMgMTUuNzg2NjY3LTEuMTA5MzMzIDIyLjg2OTMzMy00LjYwOGExOC43NzMzMzMgMTguNzczMzMzIDAgMCAwIDcuNzIyNjY3LTkuODEzMzMzIDU4Ljg4IDU4Ljg4IDAgMCAwIDEuODM0NjY3LTE3Ljkydi0yMS41MDRhNTIuODY0IDUyLjg2NCAwIDAgMS00NC4wNzQ2NjcgMjMuODkzMzMzIDU0LjQgNTQuNCAwIDAgMS00Ny4wMTg2NjctMjUuMDQ1MzMzIDg1LjYzMiA4NS42MzIgMCAwIDEtMTMuNTY4LTQ5LjQwOCA4MS4xOTQ2NjcgODEuMTk0NjY3IDAgMCAxIDE3Ljc5Mi01Ni41NzYgNTcuNDcyIDU3LjQ3MiAwIDAgMSA0NC4yODgtMTkuNTQxMzMzYzE4LjA5MDY2Ny0wLjA4NTMzMyAzNC45ODY2NjcgOC45NiA0NS4wNTYgMjMuOTc4NjY2di0yMC42NTA2NjZoMzYuNTIyNjY3djEzMi4wOTZjMC41MTIgMTMuMTQxMzMzLTAuOTM4NjY3IDI2LjI0LTQuMjY2NjY3IDM4Ljk1NDY2Ni0yLjMwNCA3LjYzNzMzMy02LjQ0MjY2NyAxNC41OTItMTIuMDc0NjY2IDIwLjIyNC01Ljk3MzMzMyA1LjMzMzMzMy0xMy4wNTYgOS4zMDEzMzMtMjAuNzM2IDExLjU2MjY2N2ExMTAuOTMzMzMzIDExMC45MzMzMzMgMCAwIDEtMzIuODEwNjY3IDQuMTM4NjY3Yy0yNC45MTczMzMgMC00Mi42NjY2NjctNC4yNjY2NjctNTMuMDc3MzMzLTEyLjg4NTMzNGE0MC4xNDkzMzMgNDAuMTQ5MzMzIDAgMCAxLTE1LjY1ODY2Ny0zMi40MjY2NjZ6IG00My45ODkzMzMtMTI0LjMzMDY2NmE1MS4wMjkzMzMgNTEuMDI5MzMzIDAgMCAwLTkuMDAyNjY2IDMzLjE5NDY2NmMtMS4wMjQgMTIuMTE3MzMzIDIuMTc2IDI0LjIzNDY2NyA5LjA0NTMzMyAzNC4zMDRhMjguMTYgMjguMTYgMCAwIDAgMjIuNCAxMC45MjI2NjcgMzAuOTc2IDMwLjk3NiAwIDAgMCAyNC4xMDY2NjctMTEuMjIxMzMzIDQ4LjY0IDQ4LjY0IDAgMCAwIDkuODEzMzMzLTMzLjA2NjY2NyA1MS41NDEzMzMgNTEuNTQxMzMzIDAgMCAwLTkuMzg2NjY3LTMzLjk2MjY2NyAyOS45NTIgMjkuOTUyIDAgMCAwLTIzLjg5MzMzMy0xMS4wOTMzMzMgMjguNzU3MzMzIDI4Ljc1NzMzMyAwIDAgMC0yMy4wNCAxMC45MjI2Njd6Ii8+PC9zdmc+;fontColor=#FFFFFF;strokeColor=#EFF1F3;strokeWidth=1;fillColor=#E6D7C2;" parent="1" vertex="1">
          <mxGeometry x="234.5" y="406" width="32" height="32" as="geometry" />
        </mxCell>
        <mxCell id="Jgx5MPd64Z9ybUuF26Cs-22" value="" style="shape=image;verticalLabelPosition=bottom;verticalAlign=top;imageAspect=0;aspect=fixed;image=data:image/svg+xml,PHN2ZyB4bWxuczp4bGluaz0iaHR0cDovL3d3dy53My5vcmcvMTk5OS94bGluayIgeG1sbnM9Imh0dHA6Ly93d3cudzMub3JnLzIwMDAvc3ZnIiBoZWlnaHQ9IjIwMCIgd2lkdGg9IjIwMCIgdmVyc2lvbj0iMS4xIiB2aWV3Qm94PSIwIDAgMTAyNCAxMDI0IiBjbGFzcz0iaWNvbiI+PGRlZnM+PHN0eWxlIHR5cGU9InRleHQvY3NzIj5AZm9udC1mYWNlIHsgZm9udC1mYW1pbHk6IGZlZWRiYWNrLWljb25mb250OyBzcmM6IHVybCgiLy9hdC5hbGljZG4uY29tL3QvZm9udF8xMDMxMTU4X3U2OXc4eWh4ZHUud29mZjI/dD0xNjMwMDMzNzU5OTQ0IikgZm9ybWF0KCJ3b2ZmMiIpLCB1cmwoIi8vYXQuYWxpY2RuLmNvbS90L2ZvbnRfMTAzMTE1OF91Njl3OHloeGR1LndvZmY/dD0xNjMwMDMzNzU5OTQ0IikgZm9ybWF0KCJ3b2ZmIiksIHVybCgiLy9hdC5hbGljZG4uY29tL3QvZm9udF8xMDMxMTU4X3U2OXc4eWh4ZHUudHRmP3Q9MTYzMDAzMzc1OTk0NCIpIGZvcm1hdCgidHJ1ZXR5cGUiKTsgfSYjeGE7PC9zdHlsZT48L2RlZnM+PHBhdGggZmlsbD0iIzRBOTE5QiIgZD0iTTI3Ny4zMzMzMzMgODUzLjMzMzMzM2E5NC4wMzczMzMgOTQuMDM3MzMzIDAgMCAxLTkzLjg2NjY2Ni05My44NjY2NjZWMjY0LjUzMzMzM0E5NC4wMzczMzMgOTQuMDM3MzMzIDAgMCAxIDI3Ny4zMzMzMzMgMTcwLjY2NjY2N2gzODYuOTAxMzM0YzE1Ljc4NjY2Ny0wLjEyOCAzMC45MzMzMzMgNi4wMTYgNDIuMTU0NjY2IDE3LjA2NjY2NmwxMjYuNDY0IDEyNi40NjRhMjUuNiAyNS42IDAgMCAxIDcuNjggMTguNjAyNjY3djQyNi42NjY2NjdhOTQuMDM3MzMzIDk0LjAzNzMzMyAwIDAgMS05My44NjY2NjYgOTMuODY2NjY2aC00NjkuMzMzMzM0eiBtMC02MzEuNDY2NjY2YTQyLjY2NjY2NyA0Mi42NjY2NjcgMCAwIDAtNDIuNjY2NjY2IDQyLjY2NjY2NnY0OTQuOTMzMzM0YTQyLjY2NjY2NyA0Mi42NjY2NjcgMCAwIDAgNDIuNjY2NjY2IDQyLjY2NjY2Nmg0NjkuMzMzMzM0YTQyLjY2NjY2NyA0Mi42NjY2NjcgMCAwIDAgNDIuNjY2NjY2LTQyLjY2NjY2NlYzNDMuMzgxMzMzbC0xMTkuNDY2NjY2LTExOS40NjY2NjZhOC41MzMzMzMgOC41MzMzMzMgMCAwIDAtNS42MzItMi4wNDhIMjc3LjMzMzMzM3ogbTkyLjg0MjY2NyAxNzguNTZoLTM4LjkxMlYzNjQuMzczMzMzaDM4LjkxMnYzNi4wNTMzMzR6IG0tMzguOTEyIDE5Ljk2OGgzOC45MTJ2MTQyLjYzNDY2NmMwLjU5NzMzMyAxMy4zNTQ2NjctMC42NCAyNi43NTItMy42NjkzMzMgMzkuNzY1MzM0YTMyLjQyNjY2NyAzMi40MjY2NjcgMCAwIDEtMTQuMTIyNjY3IDE4LjA5MDY2NmMtOC4xMDY2NjcgNC42MDgtMTcuMzY1MzMzIDYuODI2NjY3LTI2LjcwOTMzMyA2LjQ4NTMzNC00LjE4MTMzMyAwLTguMzYyNjY3LTAuMzg0LTEyLjU0NC0xLjA2NjY2N0ExNjguMjc3MzMzIDE2OC4yNzczMzMgMCAwIDEgMjk4LjY2NjY2NyA2MjMuMjMybDYuODI2NjY2LTMzLjMyMjY2NyA1LjEyIDAuOTM4NjY3YzEuNTM2IDAuMjEzMzMzIDMuMDI5MzMzIDAuMzQxMzMzIDQuNTIyNjY3IDAuMzQxMzMzYTE2LjY0IDE2LjY0IDAgMCAwIDkuODEzMzMzLTIuNjAyNjY2IDEyLjIwMjY2NyAxMi4yMDI2NjcgMCAwIDAgNS4wMzQ2NjctNi4xNDRjMS4xOTQ2NjctNy4xNjggMS42MjEzMzMtMTQuNDIxMzMzIDEuMjgtMjEuNjMyVjQyMC4zOTQ2Njd6IG04NS42NzQ2NjcgMjAzLjIyMTMzM1Y0MjAuMzk0NjY3aDM2LjMwOTMzM3YyMS41ODkzMzNhNTQuNCA1NC40IDAgMCAxIDQ1Ljg2NjY2Ny0yNC45MTczMzNjMTYuODEwNjY3LTAuMTcwNjY3IDMyLjc2OCA3LjI1MzMzMyA0My41MiAyMC4wOTYgMTIuOCAxNS43ODY2NjcgMTkuMTU3MzMzIDM1Ljc1NDY2NyAxNy45MiA1Ni4wMjEzMzMgMS4yOCAyMC42NTA2NjctNS4xMiA0MS4wODgtMTguMDQ4IDU3LjMwMTMzM2E1Ni4yMzQ2NjcgNTYuMjM0NjY3IDAgMCAxLTQzLjY0OCAyMC40OCA1MC4xMzMzMzMgNTAuMTMzMzMzIDAgMCAxLTIyLjEwMTMzNC00Ljg2NGMtNy44OTMzMzMtNC4yNjY2NjctMTQuOTMzMzMzLTkuODk4NjY3LTIwLjkwNjY2Ni0xNi42NHY3NC4xNTQ2NjdoLTM4LjkxMnogbTQ3Ljk1NzMzMy0xNjQuNzM2YTQ5LjA2NjY2NyA0OS4wNjY2NjcgMCAwIDAtOS40NzIgMzIuNTk3MzMzYy0xLjAyNCAxMi45NzA2NjcgMi40MzIgMjUuOTQxMzMzIDkuODEzMzMzIDM2LjY5MzMzNGEzMC4wOCAzMC4wOCAwIDAgMCAyNC4wMjEzMzQgMTEuODE4NjY2IDI4LjAzMiAyOC4wMzIgMCAwIDAgMjIuNjEzMzMzLTEwLjgzNzMzM2M2LjkxMi0xMC41Mzg2NjcgMTAuMDY5MzMzLTIzLjEyNTMzMyA4Ljk2LTM1LjcxMmE1My4yNDggNTMuMjQ4IDAgMCAwLTkuMjU4NjY3LTM0LjM0NjY2NyAyOC43MTQ2NjcgMjguNzE0NjY3IDAgMCAwLTIzLjA0LTExLjI2NCAyOS44NjY2NjcgMjkuODY2NjY3IDAgMCAwLTIzLjYzNzMzMyAxMS4wNTA2Njd6IG0xMjkuOTIgMTIzLjIyMTMzM2gtMC4wNDI2NjdsMC4xMjgtNC43MzYgNDQuNTAxMzM0IDUuMjkwNjY3YTE1LjUzMDY2NyAxNS41MzA2NjcgMCAwIDAgNS4xMiAxMC43OTQ2NjcgMjkuNjUzMzMzIDI5LjY1MzMzMyAwIDAgMCAxNy40OTMzMzMgNC4xMzg2NjZjNy44OTMzMzMgMC40NjkzMzMgMTUuNzg2NjY3LTEuMTA5MzMzIDIyLjg2OTMzMy00LjYwOGExOC43NzMzMzMgMTguNzczMzMzIDAgMCAwIDcuNzIyNjY3LTkuODEzMzMzIDU4Ljg4IDU4Ljg4IDAgMCAwIDEuODM0NjY3LTE3Ljkydi0yMS41MDRhNTIuODY0IDUyLjg2NCAwIDAgMS00NC4wNzQ2NjcgMjMuODkzMzMzIDU0LjQgNTQuNCAwIDAgMS00Ny4wMTg2NjctMjUuMDQ1MzMzIDg1LjYzMiA4NS42MzIgMCAwIDEtMTMuNTY4LTQ5LjQwOCA4MS4xOTQ2NjcgODEuMTk0NjY3IDAgMCAxIDE3Ljc5Mi01Ni41NzYgNTcuNDcyIDU3LjQ3MiAwIDAgMSA0NC4yODgtMTkuNTQxMzMzYzE4LjA5MDY2Ny0wLjA4NTMzMyAzNC45ODY2NjcgOC45NiA0NS4wNTYgMjMuOTc4NjY2di0yMC42NTA2NjZoMzYuNTIyNjY3djEzMi4wOTZjMC41MTIgMTMuMTQxMzMzLTAuOTM4NjY3IDI2LjI0LTQuMjY2NjY3IDM4Ljk1NDY2Ni0yLjMwNCA3LjYzNzMzMy02LjQ0MjY2NyAxNC41OTItMTIuMDc0NjY2IDIwLjIyNC01Ljk3MzMzMyA1LjMzMzMzMy0xMy4wNTYgOS4zMDEzMzMtMjAuNzM2IDExLjU2MjY2N2ExMTAuOTMzMzMzIDExMC45MzMzMzMgMCAwIDEtMzIuODEwNjY3IDQuMTM4NjY3Yy0yNC45MTczMzMgMC00Mi42NjY2NjctNC4yNjY2NjctNTMuMDc3MzMzLTEyLjg4NTMzNGE0MC4xNDkzMzMgNDAuMTQ5MzMzIDAgMCAxLTE1LjY1ODY2Ny0zMi40MjY2NjZ6IG00My45ODkzMzMtMTI0LjMzMDY2NmE1MS4wMjkzMzMgNTEuMDI5MzMzIDAgMCAwLTkuMDAyNjY2IDMzLjE5NDY2NmMtMS4wMjQgMTIuMTE3MzMzIDIuMTc2IDI0LjIzNDY2NyA5LjA0NTMzMyAzNC4zMDRhMjguMTYgMjguMTYgMCAwIDAgMjIuNCAxMC45MjI2NjcgMzAuOTc2IDMwLjk3NiAwIDAgMCAyNC4xMDY2NjctMTEuMjIxMzMzIDQ4LjY0IDQ4LjY0IDAgMCAwIDkuODEzMzMzLTMzLjA2NjY2NyA1MS41NDEzMzMgNTEuNTQxMzMzIDAgMCAwLTkuMzg2NjY3LTMzLjk2MjY2NyAyOS45NTIgMjkuOTUyIDAgMCAwLTIzLjg5MzMzMy0xMS4wOTMzMzMgMjguNzU3MzMzIDI4Ljc1NzMzMyAwIDAgMC0yMy4wNCAxMC45MjI2Njd6Ii8+PC9zdmc+;fontColor=#FFFFFF;strokeColor=#EFF1F3;strokeWidth=1;fillColor=#E6D7C2;" parent="1" vertex="1">
          <mxGeometry x="260" y="406" width="32" height="32" as="geometry" />
        </mxCell>
        <mxCell id="Jgx5MPd64Z9ybUuF26Cs-23" value="" style="shape=image;verticalLabelPosition=bottom;verticalAlign=top;imageAspect=0;aspect=fixed;image=data:image/svg+xml,PHN2ZyB4bWxuczp4bGluaz0iaHR0cDovL3d3dy53My5vcmcvMTk5OS94bGluayIgeG1sbnM9Imh0dHA6Ly93d3cudzMub3JnLzIwMDAvc3ZnIiBoZWlnaHQ9IjIwMCIgd2lkdGg9IjIwMCIgdmVyc2lvbj0iMS4xIiB2aWV3Qm94PSIwIDAgMTAyNCAxMDI0IiBjbGFzcz0iaWNvbiI+PGRlZnM+PHN0eWxlIHR5cGU9InRleHQvY3NzIj5AZm9udC1mYWNlIHsgZm9udC1mYW1pbHk6IGZlZWRiYWNrLWljb25mb250OyBzcmM6IHVybCgiLy9hdC5hbGljZG4uY29tL3QvZm9udF8xMDMxMTU4X3U2OXc4eWh4ZHUud29mZjI/dD0xNjMwMDMzNzU5OTQ0IikgZm9ybWF0KCJ3b2ZmMiIpLCB1cmwoIi8vYXQuYWxpY2RuLmNvbS90L2ZvbnRfMTAzMTE1OF91Njl3OHloeGR1LndvZmY/dD0xNjMwMDMzNzU5OTQ0IikgZm9ybWF0KCJ3b2ZmIiksIHVybCgiLy9hdC5hbGljZG4uY29tL3QvZm9udF8xMDMxMTU4X3U2OXc4eWh4ZHUudHRmP3Q9MTYzMDAzMzc1OTk0NCIpIGZvcm1hdCgidHJ1ZXR5cGUiKTsgfSYjeGE7PC9zdHlsZT48L2RlZnM+PHBhdGggZmlsbD0iIzRBOTE5QiIgZD0iTTI3Ny4zMzMzMzMgODUzLjMzMzMzM2E5NC4wMzczMzMgOTQuMDM3MzMzIDAgMCAxLTkzLjg2NjY2Ni05My44NjY2NjZWMjY0LjUzMzMzM0E5NC4wMzczMzMgOTQuMDM3MzMzIDAgMCAxIDI3Ny4zMzMzMzMgMTcwLjY2NjY2N2gzODYuOTAxMzM0YzE1Ljc4NjY2Ny0wLjEyOCAzMC45MzMzMzMgNi4wMTYgNDIuMTU0NjY2IDE3LjA2NjY2NmwxMjYuNDY0IDEyNi40NjRhMjUuNiAyNS42IDAgMCAxIDcuNjggMTguNjAyNjY3djQyNi42NjY2NjdhOTQuMDM3MzMzIDk0LjAzNzMzMyAwIDAgMS05My44NjY2NjYgOTMuODY2NjY2aC00NjkuMzMzMzM0eiBtMC02MzEuNDY2NjY2YTQyLjY2NjY2NyA0Mi42NjY2NjcgMCAwIDAtNDIuNjY2NjY2IDQyLjY2NjY2NnY0OTQuOTMzMzM0YTQyLjY2NjY2NyA0Mi42NjY2NjcgMCAwIDAgNDIuNjY2NjY2IDQyLjY2NjY2Nmg0NjkuMzMzMzM0YTQyLjY2NjY2NyA0Mi42NjY2NjcgMCAwIDAgNDIuNjY2NjY2LTQyLjY2NjY2NlYzNDMuMzgxMzMzbC0xMTkuNDY2NjY2LTExOS40NjY2NjZhOC41MzMzMzMgOC41MzMzMzMgMCAwIDAtNS42MzItMi4wNDhIMjc3LjMzMzMzM3ogbTkyLjg0MjY2NyAxNzguNTZoLTM4LjkxMlYzNjQuMzczMzMzaDM4LjkxMnYzNi4wNTMzMzR6IG0tMzguOTEyIDE5Ljk2OGgzOC45MTJ2MTQyLjYzNDY2NmMwLjU5NzMzMyAxMy4zNTQ2NjctMC42NCAyNi43NTItMy42NjkzMzMgMzkuNzY1MzM0YTMyLjQyNjY2NyAzMi40MjY2NjcgMCAwIDEtMTQuMTIyNjY3IDE4LjA5MDY2NmMtOC4xMDY2NjcgNC42MDgtMTcuMzY1MzMzIDYuODI2NjY3LTI2LjcwOTMzMyA2LjQ4NTMzNC00LjE4MTMzMyAwLTguMzYyNjY3LTAuMzg0LTEyLjU0NC0xLjA2NjY2N0ExNjguMjc3MzMzIDE2OC4yNzczMzMgMCAwIDEgMjk4LjY2NjY2NyA2MjMuMjMybDYuODI2NjY2LTMzLjMyMjY2NyA1LjEyIDAuOTM4NjY3YzEuNTM2IDAuMjEzMzMzIDMuMDI5MzMzIDAuMzQxMzMzIDQuNTIyNjY3IDAuMzQxMzMzYTE2LjY0IDE2LjY0IDAgMCAwIDkuODEzMzMzLTIuNjAyNjY2IDEyLjIwMjY2NyAxMi4yMDI2NjcgMCAwIDAgNS4wMzQ2NjctNi4xNDRjMS4xOTQ2NjctNy4xNjggMS42MjEzMzMtMTQuNDIxMzMzIDEuMjgtMjEuNjMyVjQyMC4zOTQ2Njd6IG04NS42NzQ2NjcgMjAzLjIyMTMzM1Y0MjAuMzk0NjY3aDM2LjMwOTMzM3YyMS41ODkzMzNhNTQuNCA1NC40IDAgMCAxIDQ1Ljg2NjY2Ny0yNC45MTczMzNjMTYuODEwNjY3LTAuMTcwNjY3IDMyLjc2OCA3LjI1MzMzMyA0My41MiAyMC4wOTYgMTIuOCAxNS43ODY2NjcgMTkuMTU3MzMzIDM1Ljc1NDY2NyAxNy45MiA1Ni4wMjEzMzMgMS4yOCAyMC42NTA2NjctNS4xMiA0MS4wODgtMTguMDQ4IDU3LjMwMTMzM2E1Ni4yMzQ2NjcgNTYuMjM0NjY3IDAgMCAxLTQzLjY0OCAyMC40OCA1MC4xMzMzMzMgNTAuMTMzMzMzIDAgMCAxLTIyLjEwMTMzNC00Ljg2NGMtNy44OTMzMzMtNC4yNjY2NjctMTQuOTMzMzMzLTkuODk4NjY3LTIwLjkwNjY2Ni0xNi42NHY3NC4xNTQ2NjdoLTM4LjkxMnogbTQ3Ljk1NzMzMy0xNjQuNzM2YTQ5LjA2NjY2NyA0OS4wNjY2NjcgMCAwIDAtOS40NzIgMzIuNTk3MzMzYy0xLjAyNCAxMi45NzA2NjcgMi40MzIgMjUuOTQxMzMzIDkuODEzMzMzIDM2LjY5MzMzNGEzMC4wOCAzMC4wOCAwIDAgMCAyNC4wMjEzMzQgMTEuODE4NjY2IDI4LjAzMiAyOC4wMzIgMCAwIDAgMjIuNjEzMzMzLTEwLjgzNzMzM2M2LjkxMi0xMC41Mzg2NjcgMTAuMDY5MzMzLTIzLjEyNTMzMyA4Ljk2LTM1LjcxMmE1My4yNDggNTMuMjQ4IDAgMCAwLTkuMjU4NjY3LTM0LjM0NjY2NyAyOC43MTQ2NjcgMjguNzE0NjY3IDAgMCAwLTIzLjA0LTExLjI2NCAyOS44NjY2NjcgMjkuODY2NjY3IDAgMCAwLTIzLjYzNzMzMyAxMS4wNTA2Njd6IG0xMjkuOTIgMTIzLjIyMTMzM2gtMC4wNDI2NjdsMC4xMjgtNC43MzYgNDQuNTAxMzM0IDUuMjkwNjY3YTE1LjUzMDY2NyAxNS41MzA2NjcgMCAwIDAgNS4xMiAxMC43OTQ2NjcgMjkuNjUzMzMzIDI5LjY1MzMzMyAwIDAgMCAxNy40OTMzMzMgNC4xMzg2NjZjNy44OTMzMzMgMC40NjkzMzMgMTUuNzg2NjY3LTEuMTA5MzMzIDIyLjg2OTMzMy00LjYwOGExOC43NzMzMzMgMTguNzczMzMzIDAgMCAwIDcuNzIyNjY3LTkuODEzMzMzIDU4Ljg4IDU4Ljg4IDAgMCAwIDEuODM0NjY3LTE3Ljkydi0yMS41MDRhNTIuODY0IDUyLjg2NCAwIDAgMS00NC4wNzQ2NjcgMjMuODkzMzMzIDU0LjQgNTQuNCAwIDAgMS00Ny4wMTg2NjctMjUuMDQ1MzMzIDg1LjYzMiA4NS42MzIgMCAwIDEtMTMuNTY4LTQ5LjQwOCA4MS4xOTQ2NjcgODEuMTk0NjY3IDAgMCAxIDE3Ljc5Mi01Ni41NzYgNTcuNDcyIDU3LjQ3MiAwIDAgMSA0NC4yODgtMTkuNTQxMzMzYzE4LjA5MDY2Ny0wLjA4NTMzMyAzNC45ODY2NjcgOC45NiA0NS4wNTYgMjMuOTc4NjY2di0yMC42NTA2NjZoMzYuNTIyNjY3djEzMi4wOTZjMC41MTIgMTMuMTQxMzMzLTAuOTM4NjY3IDI2LjI0LTQuMjY2NjY3IDM4Ljk1NDY2Ni0yLjMwNCA3LjYzNzMzMy02LjQ0MjY2NyAxNC41OTItMTIuMDc0NjY2IDIwLjIyNC01Ljk3MzMzMyA1LjMzMzMzMy0xMy4wNTYgOS4zMDEzMzMtMjAuNzM2IDExLjU2MjY2N2ExMTAuOTMzMzMzIDExMC45MzMzMzMgMCAwIDEtMzIuODEwNjY3IDQuMTM4NjY3Yy0yNC45MTczMzMgMC00Mi42NjY2NjctNC4yNjY2NjctNTMuMDc3MzMzLTEyLjg4NTMzNGE0MC4xNDkzMzMgNDAuMTQ5MzMzIDAgMCAxLTE1LjY1ODY2Ny0zMi40MjY2NjZ6IG00My45ODkzMzMtMTI0LjMzMDY2NmE1MS4wMjkzMzMgNTEuMDI5MzMzIDAgMCAwLTkuMDAyNjY2IDMzLjE5NDY2NmMtMS4wMjQgMTIuMTE3MzMzIDIuMTc2IDI0LjIzNDY2NyA5LjA0NTMzMyAzNC4zMDRhMjguMTYgMjguMTYgMCAwIDAgMjIuNCAxMC45MjI2NjcgMzAuOTc2IDMwLjk3NiAwIDAgMCAyNC4xMDY2NjctMTEuMjIxMzMzIDQ4LjY0IDQ4LjY0IDAgMCAwIDkuODEzMzMzLTMzLjA2NjY2NyA1MS41NDEzMzMgNTEuNTQxMzMzIDAgMCAwLTkuMzg2NjY3LTMzLjk2MjY2NyAyOS45NTIgMjkuOTUyIDAgMCAwLTIzLjg5MzMzMy0xMS4wOTMzMzMgMjguNzU3MzMzIDI4Ljc1NzMzMyAwIDAgMC0yMy4wNCAxMC45MjI2Njd6Ii8+PC9zdmc+;fontColor=#FFFFFF;strokeColor=#EFF1F3;strokeWidth=1;fillColor=#E6D7C2;" parent="1" vertex="1">
          <mxGeometry x="185" y="432" width="32" height="32" as="geometry" />
        </mxCell>
        <mxCell id="Jgx5MPd64Z9ybUuF26Cs-24" value="" style="shape=image;verticalLabelPosition=bottom;verticalAlign=top;imageAspect=0;aspect=fixed;image=data:image/svg+xml,PHN2ZyB4bWxuczp4bGluaz0iaHR0cDovL3d3dy53My5vcmcvMTk5OS94bGluayIgeG1sbnM9Imh0dHA6Ly93d3cudzMub3JnLzIwMDAvc3ZnIiBoZWlnaHQ9IjIwMCIgd2lkdGg9IjIwMCIgdmVyc2lvbj0iMS4xIiB2aWV3Qm94PSIwIDAgMTAyNCAxMDI0IiBjbGFzcz0iaWNvbiI+PGRlZnM+PHN0eWxlIHR5cGU9InRleHQvY3NzIj5AZm9udC1mYWNlIHsgZm9udC1mYW1pbHk6IGZlZWRiYWNrLWljb25mb250OyBzcmM6IHVybCgiLy9hdC5hbGljZG4uY29tL3QvZm9udF8xMDMxMTU4X3U2OXc4eWh4ZHUud29mZjI/dD0xNjMwMDMzNzU5OTQ0IikgZm9ybWF0KCJ3b2ZmMiIpLCB1cmwoIi8vYXQuYWxpY2RuLmNvbS90L2ZvbnRfMTAzMTE1OF91Njl3OHloeGR1LndvZmY/dD0xNjMwMDMzNzU5OTQ0IikgZm9ybWF0KCJ3b2ZmIiksIHVybCgiLy9hdC5hbGljZG4uY29tL3QvZm9udF8xMDMxMTU4X3U2OXc4eWh4ZHUudHRmP3Q9MTYzMDAzMzc1OTk0NCIpIGZvcm1hdCgidHJ1ZXR5cGUiKTsgfSYjeGE7PC9zdHlsZT48L2RlZnM+PHBhdGggZmlsbD0iIzRBOTE5QiIgZD0iTTI3Ny4zMzMzMzMgODUzLjMzMzMzM2E5NC4wMzczMzMgOTQuMDM3MzMzIDAgMCAxLTkzLjg2NjY2Ni05My44NjY2NjZWMjY0LjUzMzMzM0E5NC4wMzczMzMgOTQuMDM3MzMzIDAgMCAxIDI3Ny4zMzMzMzMgMTcwLjY2NjY2N2gzODYuOTAxMzM0YzE1Ljc4NjY2Ny0wLjEyOCAzMC45MzMzMzMgNi4wMTYgNDIuMTU0NjY2IDE3LjA2NjY2NmwxMjYuNDY0IDEyNi40NjRhMjUuNiAyNS42IDAgMCAxIDcuNjggMTguNjAyNjY3djQyNi42NjY2NjdhOTQuMDM3MzMzIDk0LjAzNzMzMyAwIDAgMS05My44NjY2NjYgOTMuODY2NjY2aC00NjkuMzMzMzM0eiBtMC02MzEuNDY2NjY2YTQyLjY2NjY2NyA0Mi42NjY2NjcgMCAwIDAtNDIuNjY2NjY2IDQyLjY2NjY2NnY0OTQuOTMzMzM0YTQyLjY2NjY2NyA0Mi42NjY2NjcgMCAwIDAgNDIuNjY2NjY2IDQyLjY2NjY2Nmg0NjkuMzMzMzM0YTQyLjY2NjY2NyA0Mi42NjY2NjcgMCAwIDAgNDIuNjY2NjY2LTQyLjY2NjY2NlYzNDMuMzgxMzMzbC0xMTkuNDY2NjY2LTExOS40NjY2NjZhOC41MzMzMzMgOC41MzMzMzMgMCAwIDAtNS42MzItMi4wNDhIMjc3LjMzMzMzM3ogbTkyLjg0MjY2NyAxNzguNTZoLTM4LjkxMlYzNjQuMzczMzMzaDM4LjkxMnYzNi4wNTMzMzR6IG0tMzguOTEyIDE5Ljk2OGgzOC45MTJ2MTQyLjYzNDY2NmMwLjU5NzMzMyAxMy4zNTQ2NjctMC42NCAyNi43NTItMy42NjkzMzMgMzkuNzY1MzM0YTMyLjQyNjY2NyAzMi40MjY2NjcgMCAwIDEtMTQuMTIyNjY3IDE4LjA5MDY2NmMtOC4xMDY2NjcgNC42MDgtMTcuMzY1MzMzIDYuODI2NjY3LTI2LjcwOTMzMyA2LjQ4NTMzNC00LjE4MTMzMyAwLTguMzYyNjY3LTAuMzg0LTEyLjU0NC0xLjA2NjY2N0ExNjguMjc3MzMzIDE2OC4yNzczMzMgMCAwIDEgMjk4LjY2NjY2NyA2MjMuMjMybDYuODI2NjY2LTMzLjMyMjY2NyA1LjEyIDAuOTM4NjY3YzEuNTM2IDAuMjEzMzMzIDMuMDI5MzMzIDAuMzQxMzMzIDQuNTIyNjY3IDAuMzQxMzMzYTE2LjY0IDE2LjY0IDAgMCAwIDkuODEzMzMzLTIuNjAyNjY2IDEyLjIwMjY2NyAxMi4yMDI2NjcgMCAwIDAgNS4wMzQ2NjctNi4xNDRjMS4xOTQ2NjctNy4xNjggMS42MjEzMzMtMTQuNDIxMzMzIDEuMjgtMjEuNjMyVjQyMC4zOTQ2Njd6IG04NS42NzQ2NjcgMjAzLjIyMTMzM1Y0MjAuMzk0NjY3aDM2LjMwOTMzM3YyMS41ODkzMzNhNTQuNCA1NC40IDAgMCAxIDQ1Ljg2NjY2Ny0yNC45MTczMzNjMTYuODEwNjY3LTAuMTcwNjY3IDMyLjc2OCA3LjI1MzMzMyA0My41MiAyMC4wOTYgMTIuOCAxNS43ODY2NjcgMTkuMTU3MzMzIDM1Ljc1NDY2NyAxNy45MiA1Ni4wMjEzMzMgMS4yOCAyMC42NTA2NjctNS4xMiA0MS4wODgtMTguMDQ4IDU3LjMwMTMzM2E1Ni4yMzQ2NjcgNTYuMjM0NjY3IDAgMCAxLTQzLjY0OCAyMC40OCA1MC4xMzMzMzMgNTAuMTMzMzMzIDAgMCAxLTIyLjEwMTMzNC00Ljg2NGMtNy44OTMzMzMtNC4yNjY2NjctMTQuOTMzMzMzLTkuODk4NjY3LTIwLjkwNjY2Ni0xNi42NHY3NC4xNTQ2NjdoLTM4LjkxMnogbTQ3Ljk1NzMzMy0xNjQuNzM2YTQ5LjA2NjY2NyA0OS4wNjY2NjcgMCAwIDAtOS40NzIgMzIuNTk3MzMzYy0xLjAyNCAxMi45NzA2NjcgMi40MzIgMjUuOTQxMzMzIDkuODEzMzMzIDM2LjY5MzMzNGEzMC4wOCAzMC4wOCAwIDAgMCAyNC4wMjEzMzQgMTEuODE4NjY2IDI4LjAzMiAyOC4wMzIgMCAwIDAgMjIuNjEzMzMzLTEwLjgzNzMzM2M2LjkxMi0xMC41Mzg2NjcgMTAuMDY5MzMzLTIzLjEyNTMzMyA4Ljk2LTM1LjcxMmE1My4yNDggNTMuMjQ4IDAgMCAwLTkuMjU4NjY3LTM0LjM0NjY2NyAyOC43MTQ2NjcgMjguNzE0NjY3IDAgMCAwLTIzLjA0LTExLjI2NCAyOS44NjY2NjcgMjkuODY2NjY3IDAgMCAwLTIzLjYzNzMzMyAxMS4wNTA2Njd6IG0xMjkuOTIgMTIzLjIyMTMzM2gtMC4wNDI2NjdsMC4xMjgtNC43MzYgNDQuNTAxMzM0IDUuMjkwNjY3YTE1LjUzMDY2NyAxNS41MzA2NjcgMCAwIDAgNS4xMiAxMC43OTQ2NjcgMjkuNjUzMzMzIDI5LjY1MzMzMyAwIDAgMCAxNy40OTMzMzMgNC4xMzg2NjZjNy44OTMzMzMgMC40NjkzMzMgMTUuNzg2NjY3LTEuMTA5MzMzIDIyLjg2OTMzMy00LjYwOGExOC43NzMzMzMgMTguNzczMzMzIDAgMCAwIDcuNzIyNjY3LTkuODEzMzMzIDU4Ljg4IDU4Ljg4IDAgMCAwIDEuODM0NjY3LTE3Ljkydi0yMS41MDRhNTIuODY0IDUyLjg2NCAwIDAgMS00NC4wNzQ2NjcgMjMuODkzMzMzIDU0LjQgNTQuNCAwIDAgMS00Ny4wMTg2NjctMjUuMDQ1MzMzIDg1LjYzMiA4NS42MzIgMCAwIDEtMTMuNTY4LTQ5LjQwOCA4MS4xOTQ2NjcgODEuMTk0NjY3IDAgMCAxIDE3Ljc5Mi01Ni41NzYgNTcuNDcyIDU3LjQ3MiAwIDAgMSA0NC4yODgtMTkuNTQxMzMzYzE4LjA5MDY2Ny0wLjA4NTMzMyAzNC45ODY2NjcgOC45NiA0NS4wNTYgMjMuOTc4NjY2di0yMC42NTA2NjZoMzYuNTIyNjY3djEzMi4wOTZjMC41MTIgMTMuMTQxMzMzLTAuOTM4NjY3IDI2LjI0LTQuMjY2NjY3IDM4Ljk1NDY2Ni0yLjMwNCA3LjYzNzMzMy02LjQ0MjY2NyAxNC41OTItMTIuMDc0NjY2IDIwLjIyNC01Ljk3MzMzMyA1LjMzMzMzMy0xMy4wNTYgOS4zMDEzMzMtMjAuNzM2IDExLjU2MjY2N2ExMTAuOTMzMzMzIDExMC45MzMzMzMgMCAwIDEtMzIuODEwNjY3IDQuMTM4NjY3Yy0yNC45MTczMzMgMC00Mi42NjY2NjctNC4yNjY2NjctNTMuMDc3MzMzLTEyLjg4NTMzNGE0MC4xNDkzMzMgNDAuMTQ5MzMzIDAgMCAxLTE1LjY1ODY2Ny0zMi40MjY2NjZ6IG00My45ODkzMzMtMTI0LjMzMDY2NmE1MS4wMjkzMzMgNTEuMDI5MzMzIDAgMCAwLTkuMDAyNjY2IDMzLjE5NDY2NmMtMS4wMjQgMTIuMTE3MzMzIDIuMTc2IDI0LjIzNDY2NyA5LjA0NTMzMyAzNC4zMDRhMjguMTYgMjguMTYgMCAwIDAgMjIuNCAxMC45MjI2NjcgMzAuOTc2IDMwLjk3NiAwIDAgMCAyNC4xMDY2NjctMTEuMjIxMzMzIDQ4LjY0IDQ4LjY0IDAgMCAwIDkuODEzMzMzLTMzLjA2NjY2NyA1MS41NDEzMzMgNTEuNTQxMzMzIDAgMCAwLTkuMzg2NjY3LTMzLjk2MjY2NyAyOS45NTIgMjkuOTUyIDAgMCAwLTIzLjg5MzMzMy0xMS4wOTMzMzMgMjguNzU3MzMzIDI4Ljc1NzMzMyAwIDAgMC0yMy4wNCAxMC45MjI2Njd6Ii8+PC9zdmc+;fontColor=#FFFFFF;strokeColor=#EFF1F3;strokeWidth=1;fillColor=#E6D7C2;" parent="1" vertex="1">
          <mxGeometry x="209.5" y="432" width="32" height="32" as="geometry" />
        </mxCell>
        <mxCell id="Jgx5MPd64Z9ybUuF26Cs-28" value="&lt;font color=&quot;#4a919b&quot;&gt;上游服务&lt;/font&gt;" style="text;html=1;strokeColor=none;fillColor=none;align=center;verticalAlign=middle;whiteSpace=wrap;rounded=0;fontColor=#FFFFFF;" parent="1" vertex="1">
          <mxGeometry x="209.5" y="328" width="60" height="30" as="geometry" />
        </mxCell>
        <mxCell id="Jgx5MPd64Z9ybUuF26Cs-29" value="" style="rounded=1;whiteSpace=wrap;html=1;fontColor=#FFFFFF;fillColor=none;strokeColor=#535E80;dashed=1;strokeWidth=3;" parent="1" vertex="1">
          <mxGeometry x="423.5" y="326.5" width="147" height="246" as="geometry" />
        </mxCell>
        <mxCell id="Jgx5MPd64Z9ybUuF26Cs-30" value="&lt;font color=&quot;#535e80&quot;&gt;下游服务&lt;/font&gt;" style="text;html=1;strokeColor=none;fillColor=none;align=center;verticalAlign=middle;whiteSpace=wrap;rounded=0;fontColor=#FFFFFF;" parent="1" vertex="1">
          <mxGeometry x="463" y="328" width="60" height="30" as="geometry" />
        </mxCell>
        <mxCell id="Jgx5MPd64Z9ybUuF26Cs-33" value="" style="editableCssRules=.*;shape=image;verticalLabelPosition=bottom;labelBackgroundColor=#ffffff;verticalAlign=top;aspect=fixed;imageAspect=0;image=data:image/svg+xml,PHN2ZyB4bWxucz0iaHR0cDovL3d3dy53My5vcmcvMjAwMC9zdmciIHhtbG5zOnY9Imh0dHBzOi8vdmVjdGEuaW8vbmFubyIgd2lkdGg9IjIwIiBoZWlnaHQ9IjIwIiB2aWV3Qm94PSIwIDAgMjAgMjAiPiYjeGE7CTxzdHlsZSB0eXBlPSJ0ZXh0L2NzcyI+LnN0MCB7IGZpbGw6IHJnYig4MywgOTQsIDEyOCk7IH0gPC9zdHlsZT4mI3hhOwk8cGF0aCBjbGFzcz0ic3QwIiBkPSJNMTMuMzMgMHYyLjM4aC0yLjE2VjBIOC44M3YyLjM4SDYuNjdWMEg0LjI5djIuMzhhMiAyIDAgMCAwLTEuOTEgMS45MUgwdjIuMzhoMi4zOHYyLjE0SDB2Mi4zOGgyLjM4djIuMTRIMHYyLjM4aDIuMzhhMiAyIDAgMCAwIDEuOTEgMS45MVYyMGgyLjM4di0yLjM4aDIuMTZWMjBoMi4zNHYtMi4zOGgyLjE2VjIwaDIuMzh2LTIuMzhhMiAyIDAgMCAwIDEuOTEtMS45MUgyMHYtMi4zOGgtMi4zOHYtMi4xNEgyMFY4LjgxaC0yLjM4VjYuNjdIMjBWNC4yOWgtMi4zOGEyIDIgMCAwIDAtMS45MS0xLjkxVjB6bTEuNTMgMTUuMjRINS4xNGEuMzguMzggMCAwIDEtLjM4LS4zOFY1LjE0YS4zOC4zOCAwIDAgMSAuMzgtLjM4aDkuNzJhLjM4LjM4IDAgMCAxIC4zOC4zOHY5LjcyYS4zOC4zOCAwIDAgMS0uMzguMzh6bS0yLjA3LTYuMTJsLTMuNSA0Ljg2di0zLjYzSDcuMjJsMy42MS00LjgxdjMuNTh6Ii8+JiN4YTs8L3N2Zz4=;fontColor=#535E80;strokeColor=#535E80;strokeWidth=1;fillColor=#4A919B;" parent="1" vertex="1">
          <mxGeometry x="457" y="397" width="80" height="80" as="geometry" />
        </mxCell>
        <mxCell id="Jgx5MPd64Z9ybUuF26Cs-34" value="&lt;b&gt;GPU&lt;/b&gt;" style="text;html=1;strokeColor=none;fillColor=none;align=center;verticalAlign=middle;whiteSpace=wrap;rounded=0;fontColor=#535E80;" parent="1" vertex="1">
          <mxGeometry x="467" y="477" width="60" height="30" as="geometry" />
        </mxCell>
        <mxCell id="Jgx5MPd64Z9ybUuF26Cs-35" value="" style="curved=1;endArrow=classic;html=1;rounded=0;fontColor=#535E80;strokeColor=#5C5C5C;fillColor=#4A919B;strokeWidth=2;dashed=1;" parent="1" edge="1">
          <mxGeometry width="50" height="50" relative="1" as="geometry">
            <mxPoint x="155" y="401" as="sourcePoint" />
            <mxPoint x="188" y="445.9999999999999" as="targetPoint" />
            <Array as="points">
              <mxPoint x="180" y="411" />
              <mxPoint x="138" y="445.9999999999999" />
            </Array>
          </mxGeometry>
        </mxCell>
        <mxCell id="Jgx5MPd64Z9ybUuF26Cs-36" value="&lt;font color=&quot;#5c5c5c&quot;&gt;1.并发请求的图片收集起来&lt;/font&gt;" style="text;html=1;strokeColor=none;fillColor=none;align=center;verticalAlign=middle;whiteSpace=wrap;rounded=0;fontColor=#535E80;" parent="1" vertex="1">
          <mxGeometry x="85" y="358" width="83" height="37" as="geometry" />
        </mxCell>
        <mxCell id="Jgx5MPd64Z9ybUuF26Cs-37" value="" style="curved=1;endArrow=classic;html=1;rounded=0;dashed=1;fontColor=#5C5C5C;strokeColor=#5C5C5C;strokeWidth=2;fillColor=#4A919B;" parent="1" edge="1">
          <mxGeometry width="50" height="50" relative="1" as="geometry">
            <mxPoint x="322" y="415" as="sourcePoint" />
            <mxPoint x="406" y="380" as="targetPoint" />
            <Array as="points">
              <mxPoint x="375" y="420" />
              <mxPoint x="363" y="372" />
            </Array>
          </mxGeometry>
        </mxCell>
        <mxCell id="Jgx5MPd64Z9ybUuF26Cs-38" value="&lt;font color=&quot;#5c5c5c&quot;&gt;2.&lt;/font&gt;&lt;span style=&quot;color: rgb(92, 92, 92);&quot;&gt;超时或批次满了触发&lt;/span&gt;&lt;font color=&quot;#5c5c5c&quot;&gt;&lt;br&gt;批量请求&lt;br&gt;&lt;br&gt;&lt;/font&gt;" style="text;html=1;strokeColor=none;fillColor=none;align=center;verticalAlign=middle;whiteSpace=wrap;rounded=0;fontColor=#535E80;" parent="1" vertex="1">
          <mxGeometry x="321" y="427" width="83" height="37" as="geometry" />
        </mxCell>
        <mxCell id="Jgx5MPd64Z9ybUuF26Cs-39" value="" style="curved=1;endArrow=classic;html=1;rounded=0;dashed=1;fontColor=#5C5C5C;strokeColor=#5C5C5C;strokeWidth=2;fillColor=#4A919B;" parent="1" edge="1">
          <mxGeometry width="50" height="50" relative="1" as="geometry">
            <mxPoint x="410" y="480" as="sourcePoint" />
            <mxPoint x="325" y="519" as="targetPoint" />
            <Array as="points">
              <mxPoint x="360" y="480" />
              <mxPoint x="385" y="524" />
            </Array>
          </mxGeometry>
        </mxCell>
        <mxCell id="Jgx5MPd64Z9ybUuF26Cs-40" value="" style="rounded=1;whiteSpace=wrap;html=1;fontColor=#FFFFFF;strokeColor=#EFF1F3;strokeWidth=1;fillColor=#E6D7C2;" parent="1" vertex="1">
          <mxGeometry x="179.5" y="499" width="120" height="60" as="geometry" />
        </mxCell>
        <mxCell id="Jgx5MPd64Z9ybUuF26Cs-48" value="&lt;font color=&quot;#4a919b&quot; style=&quot;font-size: 16px;&quot;&gt;Y&lt;/font&gt;" style="text;html=1;strokeColor=#4A919B;fillColor=none;align=center;verticalAlign=middle;whiteSpace=wrap;rounded=1;fontColor=#5C5C5C;strokeWidth=2;" parent="1" vertex="1">
          <mxGeometry x="217" y="507" width="19.5" height="20" as="geometry" />
        </mxCell>
        <mxCell id="Jgx5MPd64Z9ybUuF26Cs-51" value="&lt;font color=&quot;#4a919b&quot; style=&quot;font-size: 16px;&quot;&gt;Y&lt;/font&gt;" style="text;html=1;strokeColor=#4A919B;fillColor=none;align=center;verticalAlign=middle;whiteSpace=wrap;rounded=1;fontColor=#5C5C5C;strokeWidth=2;" parent="1" vertex="1">
          <mxGeometry x="191.25" y="507" width="19.5" height="20" as="geometry" />
        </mxCell>
        <mxCell id="Jgx5MPd64Z9ybUuF26Cs-52" value="&lt;font color=&quot;#4a919b&quot; style=&quot;font-size: 16px;&quot;&gt;Y&lt;/font&gt;" style="text;html=1;strokeColor=#4A919B;fillColor=none;align=center;verticalAlign=middle;whiteSpace=wrap;rounded=1;fontColor=#5C5C5C;strokeWidth=2;" parent="1" vertex="1">
          <mxGeometry x="241.5" y="507" width="19.5" height="20" as="geometry" />
        </mxCell>
        <mxCell id="Jgx5MPd64Z9ybUuF26Cs-53" value="&lt;span style=&quot;font-size: 16px;&quot;&gt;&lt;font color=&quot;#f19c99&quot;&gt;N&lt;/font&gt;&lt;/span&gt;" style="text;html=1;strokeColor=#F19C99;fillColor=none;align=center;verticalAlign=middle;whiteSpace=wrap;rounded=1;fontColor=#5C5C5C;strokeWidth=2;" parent="1" vertex="1">
          <mxGeometry x="266.5" y="507" width="19.5" height="20" as="geometry" />
        </mxCell>
        <mxCell id="Jgx5MPd64Z9ybUuF26Cs-54" value="&lt;font color=&quot;#f19c99&quot; style=&quot;font-size: 16px;&quot;&gt;N&lt;/font&gt;" style="text;html=1;strokeColor=#F19C99;fillColor=none;align=center;verticalAlign=middle;whiteSpace=wrap;rounded=1;fontColor=#5C5C5C;strokeWidth=2;" parent="1" vertex="1">
          <mxGeometry x="216.88" y="533" width="19.5" height="20" as="geometry" />
        </mxCell>
        <mxCell id="Jgx5MPd64Z9ybUuF26Cs-55" value="&lt;font color=&quot;#4a919b&quot; style=&quot;font-size: 16px;&quot;&gt;Y&lt;/font&gt;" style="text;html=1;strokeColor=#4A919B;fillColor=none;align=center;verticalAlign=middle;whiteSpace=wrap;rounded=1;fontColor=#5C5C5C;strokeWidth=2;" parent="1" vertex="1">
          <mxGeometry x="191.13" y="533" width="19.5" height="20" as="geometry" />
        </mxCell>
        <mxCell id="Jgx5MPd64Z9ybUuF26Cs-58" value="&lt;font color=&quot;#5c5c5c&quot;&gt;3.返回&lt;br&gt;审核结果&lt;/font&gt;&lt;font color=&quot;#5c5c5c&quot;&gt;&lt;br&gt;&lt;/font&gt;" style="text;html=1;strokeColor=none;fillColor=none;align=center;verticalAlign=middle;whiteSpace=wrap;rounded=0;fontColor=#535E80;" parent="1" vertex="1">
          <mxGeometry x="328" y="522" width="83" height="37" as="geometry" />
        </mxCell>
        <mxCell id="Jgx5MPd64Z9ybUuF26Cs-59" value="" style="curved=1;endArrow=classic;html=1;rounded=0;dashed=1;fontColor=#5C5C5C;strokeColor=#5C5C5C;strokeWidth=2;fillColor=#4A919B;" parent="1" edge="1">
          <mxGeometry width="50" height="50" relative="1" as="geometry">
            <mxPoint x="157" y="541" as="sourcePoint" />
            <mxPoint x="129" y="478" as="targetPoint" />
            <Array as="points">
              <mxPoint x="130.5" y="540" />
              <mxPoint x="155.5" y="496" />
            </Array>
          </mxGeometry>
        </mxCell>
        <mxCell id="Jgx5MPd64Z9ybUuF26Cs-60" value="&lt;font color=&quot;#5c5c5c&quot;&gt;4.拆包后&lt;br&gt;返回结果&lt;/font&gt;&lt;font color=&quot;#5c5c5c&quot;&gt;&lt;br&gt;&lt;/font&gt;" style="text;html=1;strokeColor=none;fillColor=none;align=center;verticalAlign=middle;whiteSpace=wrap;rounded=0;fontColor=#535E80;" parent="1" vertex="1">
          <mxGeometry x="85" y="539" width="83" height="37" as="geometry" />
        </mxCell>
      </root>
    </mxGraphModel>
  </diagram>
</mxfile>
